<svg width="16" height="16" viewBox="0 0 16 16" fill="none" xmlns="http://www.w3.org/2000/svg">
<g id="Budicon-Solid/Arrow/arrow-left">
<path id="Shape" d="M15.3599 7.99602C15.3599 8.17275 15.2166 8.31602 15.0399 8.31602H2.37244L6.3062 12.2498C6.38939 12.3301 6.42275 12.4491 6.39346 12.561C6.36418 12.6729 6.2768 12.7602 6.16492 12.7895C6.05304 12.8188 5.93406 12.7854 5.85372 12.7023L1.37372 8.22226C1.2488 8.0973 1.2488 7.89474 1.37372 7.76978L5.85372 3.28978C5.97928 3.16851 6.17887 3.17024 6.3023 3.29368C6.42574 3.41711 6.42747 3.6167 6.3062 3.74226L2.37244 7.67602H15.04C15.2167 7.67605 15.3599 7.81931 15.3599 7.99602Z" fill="#232323"/>
</g>
</svg>
