<svg width="32" height="32" viewBox="0 0 32 32" fill="none" xmlns="http://www.w3.org/2000/svg">
<path opacity="0.2" d="M0 12C0 5.37258 5.37258 0 12 0H24C28.4183 0 32 3.58172 32 8V24C32 28.4183 28.4183 32 24 32H8C3.58172 32 0 28.4183 0 24V12Z" fill="#3EC8BC"/>
<path d="M24.631 23.3865H8.08014C7.9377 23.3865 7.82224 23.5019 7.82224 23.6444V24.6217C7.82224 24.7641 7.9377 24.8796 8.08014 24.8796H24.631C24.7734 24.8796 24.8889 24.7641 24.8889 24.6217V23.6444C24.8889 23.5019 24.7734 23.3865 24.631 23.3865Z" fill="#3EC8BC"/>
<path d="M8.77859 21.6667V22.1144C8.77859 22.2577 8.89476 22.3739 9.03809 22.3739H23.6731C23.8164 22.3739 23.9326 22.2577 23.9326 22.1144V21.6667C23.9326 21.5234 23.8164 21.4072 23.6731 21.4072H9.03809C8.89476 21.4072 8.77859 21.5234 8.77859 21.6667Z" fill="#3EC8BC"/>
<path d="M8.31514 13.3693H24.396C24.517 13.3693 24.6151 13.2712 24.6151 13.1502V12.4818C24.6151 12.3608 24.517 12.2627 24.396 12.2627H8.31514C8.19411 12.2627 8.09604 12.3608 8.09604 12.4818V13.1502C8.09604 13.2712 8.19411 13.3693 8.31514 13.3693Z" fill="#3EC8BC"/>
<path d="M9.95637 11.2504H22.7548C22.8796 11.2504 22.9192 11.082 22.8074 11.0264L16.4082 7.84414C16.3751 7.82767 16.3361 7.82767 16.303 7.84414L9.90374 11.0264C9.79197 11.082 9.83151 11.2504 9.95637 11.2504Z" fill="#3EC8BC"/>
<path d="M9.55213 19.5535C9.4599 19.5535 9.3851 19.6283 9.3851 19.7205V20.2278C9.3851 20.3201 9.45987 20.3949 9.55213 20.3949H12.3559C12.4481 20.3949 12.5229 20.3201 12.5229 20.2278V19.7205C12.5229 19.6283 12.4481 19.5535 12.3559 19.5535H11.7899V15.2933H12.3559C12.4481 15.2933 12.5229 15.2185 12.5229 15.1262V14.5489C12.5229 14.4566 12.4481 14.3818 12.3559 14.3818H9.55213C9.4599 14.3818 9.3851 14.4566 9.3851 14.5489V15.1262C9.3851 15.2185 9.45987 15.2933 9.55213 15.2933H10.1181V19.5535H9.55213Z" fill="#3EC8BC"/>
<path d="M14.9537 19.5535C14.8615 19.5535 14.7867 19.6283 14.7867 19.7205V20.2278C14.7867 20.3201 14.8614 20.3949 14.9537 20.3949H17.7574C17.8497 20.3949 17.9245 20.3201 17.9245 20.2278V19.7205C17.9245 19.6283 17.8497 19.5535 17.7574 19.5535H17.1914V15.2933H17.7574C17.8497 15.2933 17.9245 15.2185 17.9245 15.1262V14.5489C17.9245 14.4566 17.8497 14.3818 17.7574 14.3818H14.9537C14.8615 14.3818 14.7867 14.4566 14.7867 14.5489V15.1262C14.7867 15.2185 14.8614 15.2933 14.9537 15.2933H15.5197V19.5535H14.9537Z" fill="#3EC8BC"/>
<path d="M20.3553 19.5535C20.263 19.5535 20.1882 19.6283 20.1882 19.7205V20.2278C20.1882 20.3201 20.263 20.3949 20.3553 20.3949H23.326V19.7205C23.326 19.6283 23.2512 19.5535 23.159 19.5535H22.593V15.2933H23.159C23.2512 15.2933 23.326 15.2185 23.326 15.1262V14.5489C23.326 14.4566 23.2512 14.3818 23.159 14.3818H20.3552C20.263 14.3818 20.1882 14.4566 20.1882 14.5489V15.1262C20.1882 15.2185 20.263 15.2933 20.3552 15.2933H20.9212V19.5535H20.3553Z" fill="#3EC8BC"/>
</svg>
