<svg width="32" height="32" viewBox="0 0 32 32" fill="none" xmlns="http://www.w3.org/2000/svg">
<rect opacity="0.2" width="32" height="32" rx="12" fill="#F77777"/>
<path fill-rule="evenodd" clip-rule="evenodd" d="M23.8458 13.2571H24.0592C24.9089 13.2571 25.6 13.952 25.6 14.8064V23.3276C25.6 24.1821 24.9089 24.877 24.0591 24.877H10.9631C10.1133 24.877 9.42223 24.1821 9.42223 23.3276V20.4319L7.82403 17.6256L7.50553 17.0665L7.50538 17.0661L7.31479 16.7313C6.8946 15.9934 7.14553 15.0455 7.87454 14.6188L19.1081 8.04291C19.4609 7.8364 19.8733 7.78077 20.2675 7.8867C20.6636 7.99335 20.9946 8.25018 21.1997 8.60952L23.8458 13.2571ZM9.12811 18.3553L9.4223 18.8721V18.1831L9.12811 18.3553ZM9.4223 14.8064V15.4998L7.98295 16.3424C7.77488 15.973 7.89968 15.5009 8.26259 15.2883L9.44339 14.5971L9.43872 14.6305C9.43051 14.6884 9.4223 14.7463 9.4223 14.8064ZM22.9578 13.2571L21.6775 11.0084L17.8364 13.2571H22.9578ZM19.4961 8.71243C19.6706 8.61029 19.8738 8.58193 20.0683 8.63491C20.265 8.68785 20.429 8.8157 20.5309 8.99461L20.5317 8.99603L13.2531 13.2571H11.7324L19.4961 8.71243ZM15.9707 20.2291C16.1836 20.2291 16.3559 20.0558 16.3559 19.8417C16.3559 19.6276 16.1836 19.4544 15.9707 19.4544H12.1187C11.9058 19.4544 11.7335 19.6276 11.7335 19.8417C11.7335 20.0558 11.9058 20.2291 12.1187 20.2291H15.9707ZM17.5114 22.553H12.1187C11.9058 22.553 11.7335 22.3797 11.7335 22.1657C11.7335 21.9516 11.9058 21.7783 12.1187 21.7783H17.5114C17.7244 21.7783 17.8966 21.9516 17.8966 22.1657C17.8966 22.3797 17.7244 22.553 17.5114 22.553ZM20.9782 22.3805C21.2021 22.494 21.4477 22.553 21.7005 22.553C22.5766 22.553 23.2894 21.8582 23.2894 21.0037C23.2894 20.1492 22.5766 19.4543 21.7005 19.4543C21.4477 19.4543 21.202 19.5133 20.9782 19.6268C20.7544 19.5133 20.5087 19.4543 20.256 19.4543C19.3799 19.4543 18.667 20.1492 18.667 21.0037C18.667 21.8582 19.3799 22.553 20.256 22.553C20.5088 22.553 20.7544 22.494 20.9782 22.3805Z" fill="#F77777"/>
</svg>
