<svg width="32" height="32" viewBox="0 0 32 32" fill="none" xmlns="http://www.w3.org/2000/svg">
<rect opacity="0.2" width="32" height="32" rx="9.6" fill="#3EC8BC"/>
<path d="M7.13314 13.1516H9.46646C9.32274 13.1516 9.18738 13.0716 9.09874 12.9355C9.01006 12.7994 8.97926 12.6215 9.01382 12.4528L9.3041 11.0541C9.45999 10.3012 10.019 9.77573 10.6621 9.77573H13.6665C14.4384 9.77573 15.0665 10.533 15.0665 11.4636V12.5889C15.0665 12.8995 14.8574 13.1516 14.5998 13.1516H17.3998C17.1422 13.1516 16.9331 12.8995 16.9331 12.5889V11.4636C16.9331 10.533 17.5613 9.77573 18.3331 9.77573H21.3375C21.9806 9.77573 22.5397 10.3012 22.6955 11.0541L22.9858 12.4528C23.0213 12.6204 22.9895 12.7994 22.9009 12.9355C22.8122 13.0716 22.6769 13.1516 22.5332 13.1516H24.8665C25.1241 13.1516 25.3332 12.8995 25.3332 12.5889V9.21307C25.3332 7.66246 24.286 6.3999 22.9999 6.3999H8.99982C7.7137 6.3999 6.6665 7.66246 6.6665 9.21307V12.5889C6.6665 12.8995 6.87554 13.1516 7.13314 13.1516Z" fill="#3EC8BC"/>
<path fill-rule="evenodd" clip-rule="evenodd" d="M7.13312 14.2769H24.8665C26.1526 14.2769 27.1998 15.5394 27.1998 17.09V24.9669C27.1998 25.2775 26.9908 25.5296 26.7332 25.5296C26.4756 25.5296 26.2665 25.2775 26.2665 24.9669V23.279H5.73317V24.9669C5.73317 25.2775 5.52409 25.5296 5.26649 25.5296C5.00889 25.5296 4.7998 25.2775 4.7998 24.9669V17.09C4.7998 15.5394 5.847 14.2769 7.13312 14.2769ZM5.73312 22.1538H26.2664V21.0285H5.73312V22.1538Z" fill="#3EC8BC"/>
</svg>
