<svg width="20" height="16" viewBox="0 0 20 16" fill="none" xmlns="http://www.w3.org/2000/svg">
<path d="M2.61109 5.72139H4.55553C4.43576 5.72139 4.32296 5.65746 4.24909 5.54854C4.17519 5.43963 4.14953 5.29738 4.17833 5.16235L4.42023 4.04339C4.55013 3.44114 5.01599 3.02073 5.5519 3.02073H8.05556C8.6988 3.02073 9.22223 3.62656 9.22223 4.37106V5.27126C9.22223 5.51972 9.04799 5.72139 8.83333 5.72139H11.1667C10.952 5.72139 10.7778 5.51972 10.7778 5.27126V4.37106C10.7778 3.62656 11.3012 3.02073 11.9444 3.02073H14.4481C14.984 3.02073 15.4499 3.44114 15.5798 4.04339L15.8217 5.16235C15.8512 5.2965 15.8248 5.43963 15.7509 5.54854C15.677 5.65746 15.5642 5.72139 15.4445 5.72139H17.3889C17.6036 5.72139 17.7778 5.51972 17.7778 5.27126V2.5706C17.7778 1.33012 16.9051 0.320068 15.8334 0.320068H4.16666C3.0949 0.320068 2.22223 1.33012 2.22223 2.5706V5.27126C2.22223 5.51972 2.39643 5.72139 2.61109 5.72139Z" fill="#FE9C5E"/>
<path fill-rule="evenodd" clip-rule="evenodd" d="M2.61112 6.62158H17.3889C18.4607 6.62158 19.3334 7.63163 19.3334 8.87212V15.1736C19.3334 15.4221 19.1592 15.6238 18.9445 15.6238C18.7298 15.6238 18.5556 15.4221 18.5556 15.1736V13.8233H1.44449V15.1736C1.44449 15.4221 1.27025 15.6238 1.05559 15.6238C0.840921 15.6238 0.666687 15.4221 0.666687 15.1736V8.87212C0.666687 7.63163 1.53935 6.62158 2.61112 6.62158ZM1.44445 12.9231H18.5556V12.0229H1.44445V12.9231Z" fill="#FE9C5E"/>
</svg>
