<svg width="32" height="32" viewBox="0 0 32 32" fill="none" xmlns="http://www.w3.org/2000/svg">
<g id="Group 9">
<rect id="Rectangle Copy 15" opacity="0.2" width="32" height="32" rx="12" fill="#FE9C5E"/>
<g id="calendar copy">
<path id="Path" d="M15.4 6.96208V10.4124C15.4 11.1559 16.525 11.159 16.525 10.4124V6.96208C16.525 6.20454 15.4 6.22052 15.4 6.96208Z" fill="#FE9C5E"/>
<path id="Path_2" d="M9.77502 6.96208C9.77502 9.12523 9.77502 8.24927 9.77502 10.4124C9.77502 11.17 10.9 11.154 10.9 10.4124C10.9 8.24927 10.9 9.12523 10.9 6.96208C10.9 6.20454 9.77502 6.22052 9.77502 6.96208Z" fill="#FE9C5E"/>
<path id="Path_3" d="M21.1 6.96208V10.4124C21.1 11.1559 22.225 11.159 22.225 10.4124V6.96208C22.225 6.20454 21.1 6.22052 21.1 6.96208Z" fill="#FE9C5E"/>
<rect id="Rectangle" x="13.15" y="19.9749" width="2.25" height="2.25" fill="#FE9C5E"/>
<rect id="Rectangle_2" x="9.77502" y="19.9749" width="2.25" height="2.25" fill="#FE9C5E"/>
<rect id="Rectangle_3" x="16.525" y="19.9749" width="2.325" height="2.25" fill="#FE9C5E"/>
<rect id="Rectangle_4" x="9.77502" y="16.5999" width="2.25" height="2.25" fill="#FE9C5E"/>
<rect id="Rectangle_5" x="13.15" y="16.5999" width="2.25" height="2.25" fill="#FE9C5E"/>
<path id="Shape" fill-rule="evenodd" clip-rule="evenodd" d="M6.40002 23.9124V14.3499H25.6V23.9124C25.6 24.8461 24.8463 25.5999 23.9125 25.5999H8.08752C7.15374 25.5999 6.40002 24.8461 6.40002 23.9124ZM22.7875 23.3499C23.0984 23.3499 23.35 23.0983 23.35 22.7874V16.0374C23.35 15.7264 23.0984 15.4749 22.7875 15.4749H9.21252C8.90161 15.4749 8.65002 15.7264 8.65002 16.0374V22.7874C8.65002 23.0983 8.90161 23.3499 9.21252 23.3499H22.7875Z" fill="#FE9C5E"/>
<rect id="Rectangle_6" x="19.975" y="16.5999" width="2.25" height="2.25" fill="#FE9C5E"/>
<rect id="Rectangle_7" x="16.525" y="16.5999" width="2.325" height="2.25" fill="#FE9C5E"/>
<rect id="Rectangle_8" x="19.975" y="19.9749" width="2.25" height="2.25" fill="#FE9C5E"/>
<path id="Path_4" d="M23.9125 8.72485H23.35V9.84985V10.4124C23.35 10.9095 23.1528 11.3577 22.7946 11.6747C22.487 11.9466 22.0855 12.096 21.663 12.096C20.7166 12.096 19.975 11.3566 19.975 10.4124V9.84985V8.72485H17.65V9.84985V10.4124C17.65 10.9095 17.4528 11.3577 17.0946 11.6747C16.787 11.9466 16.3855 12.096 15.963 12.096C15.0166 12.096 14.275 11.3566 14.275 10.4124V9.84985V8.72485H12.025V9.84985V10.4124C12.025 10.91 11.8267 11.3588 11.4669 11.6763C11.1582 11.9493 10.7555 12.0993 10.3331 12.0993C9.38941 12.0993 8.65002 11.3583 8.65002 10.4124V9.84985V8.72485H8.08752C7.15374 8.72485 6.40002 9.4786 6.40002 10.4124V13.2249H7.52502H10.3375H15.9625H21.6625H23.35H25.6V10.4124C25.6 9.4786 24.8463 8.72485 23.9125 8.72485Z" fill="#FE9C5E"/>
</g>
</g>
</svg>
