<svg width="32" height="32" viewBox="0 0 32 32" fill="none" xmlns="http://www.w3.org/2000/svg">
<path d="M15.3999 6.96208V10.4124C15.3999 11.1559 16.5249 11.159 16.5249 10.4124V6.96208C16.5249 6.20454 15.3999 6.22052 15.3999 6.96208Z" fill="#F77777"/>
<path d="M9.7749 6.96208C9.7749 9.12523 9.7749 8.24927 9.7749 10.4124C9.7749 11.17 10.8999 11.154 10.8999 10.4124C10.8999 8.24927 10.8999 9.12523 10.8999 6.96208C10.8999 6.20454 9.7749 6.22052 9.7749 6.96208Z" fill="#F77777"/>
<path d="M21.1001 6.96208V10.4124C21.1001 11.1559 22.2251 11.159 22.2251 10.4124V6.96208C22.2251 6.20454 21.1001 6.22052 21.1001 6.96208Z" fill="#F77777"/>
<rect x="13.1499" y="19.9751" width="2.25" height="2.25" fill="#F77777"/>
<rect x="9.7749" y="19.9751" width="2.25" height="2.25" fill="#F77777"/>
<rect x="16.5249" y="19.9751" width="2.325" height="2.25" fill="#F77777"/>
<rect x="9.7749" y="16.6001" width="2.25" height="2.25" fill="#F77777"/>
<rect x="13.1499" y="16.6001" width="2.25" height="2.25" fill="#F77777"/>
<path fill-rule="evenodd" clip-rule="evenodd" d="M6.3999 23.9126V14.3501H25.5999V23.9126C25.5999 24.8463 24.8462 25.6001 23.9124 25.6001H8.0874C7.15361 25.6001 6.3999 24.8463 6.3999 23.9126ZM22.7874 23.3501C23.0983 23.3501 23.3499 23.0985 23.3499 22.7876V16.0376C23.3499 15.7267 23.0983 15.4751 22.7874 15.4751H9.2124C8.90149 15.4751 8.6499 15.7267 8.6499 16.0376V22.7876C8.6499 23.0985 8.90149 23.3501 9.2124 23.3501H22.7874Z" fill="#F77777"/>
<rect x="19.9751" y="16.6001" width="2.25" height="2.25" fill="#F77777"/>
<rect x="16.5249" y="16.6001" width="2.325" height="2.25" fill="#F77777"/>
<rect x="19.9751" y="19.9751" width="2.25" height="2.25" fill="#F77777"/>
<path d="M23.9124 8.7251H23.3499V9.8501V10.4126C23.3499 10.9097 23.1527 11.358 22.7945 11.6749C22.4869 11.9468 22.0854 12.0962 21.6629 12.0962C20.7165 12.0962 19.9749 11.3569 19.9749 10.4126V9.8501V8.7251H17.6499V9.8501V10.4126C17.6499 10.9097 17.4527 11.358 17.0945 11.6749C16.7869 11.9468 16.3854 12.0962 15.9629 12.0962C15.0165 12.0962 14.2749 11.3569 14.2749 10.4126V9.8501V8.7251H12.0249V9.8501V10.4126C12.0249 10.9103 11.8266 11.3591 11.4668 11.6766C11.1581 11.9496 10.7554 12.0995 10.333 12.0995C9.38929 12.0995 8.6499 11.3585 8.6499 10.4126V9.8501V8.7251H8.0874C7.15361 8.7251 6.3999 9.47885 6.3999 10.4126V13.2251H7.5249H10.3374H15.9624H21.6624H23.3499H25.5999V10.4126C25.5999 9.47885 24.8462 8.7251 23.9124 8.7251Z" fill="#F77777"/>
<rect opacity="0.2" width="32" height="32" rx="12" fill="#F77777"/>
</svg>
