<svg width="24" height="24" viewBox="0 0 24 24" fill="none" xmlns="http://www.w3.org/2000/svg">
<path fill-rule="evenodd" clip-rule="evenodd" d="M3.31055 21.9313C3.31055 20.7904 4.23868 19.8623 5.37951 19.8623C6.52034 19.8623 7.44848 20.7904 7.44848 21.9313C7.44848 23.0721 6.52034 24.0002 5.37951 24.0002C4.23868 24.0002 3.31055 23.0721 3.31055 21.9313ZM4.13813 21.9313C4.13813 22.6157 4.6951 23.1726 5.37951 23.1726C6.06393 23.1726 6.62089 22.6157 6.62089 21.9313C6.62089 21.2469 6.06393 20.6899 5.37951 20.6899C4.6951 20.6899 4.13813 21.2469 4.13813 21.9313Z" fill="#6155CC"/>
<path d="M5.37913 22.3447C5.60766 22.3447 5.79292 22.1594 5.79292 21.9309C5.79292 21.7024 5.60766 21.5171 5.37913 21.5171C5.15059 21.5171 4.96533 21.7024 4.96533 21.9309C4.96533 22.1594 5.15059 22.3447 5.37913 22.3447Z" fill="#6155CC"/>
<path fill-rule="evenodd" clip-rule="evenodd" d="M2.24023 15.3105H11.5862V20.6899H7.99237C7.52603 19.7129 6.53168 19.0347 5.37927 19.0347C4.56906 19.0347 3.83665 19.3699 3.3103 19.9082V16.3806L2.24023 15.3105ZM4.13789 17.3795H5.79306V16.5519H4.13789V17.3795Z" fill="#6155CC"/>
<path d="M0 21.5171V22.3447H2.51586C2.49641 22.209 2.48276 22.0716 2.48276 21.9309C2.48276 21.7902 2.49641 21.6528 2.51586 21.5171H0Z" fill="#6155CC"/>
<path d="M11.586 11.5864H5.40231C3.635 11.5864 2.13417 12.8034 1.73486 14.483H11.586V11.5864Z" fill="#6155CC"/>
<path d="M20.7603 17.7929H23.1723V17.6626C23.1723 17.4193 23.1288 17.1846 23.0506 16.9653H21.9309C21.3913 16.9653 20.9312 17.3113 20.7603 17.7929Z" fill="#6155CC"/>
<path d="M0.413793 18.2243C0.642207 18.2243 0.827586 18.0385 0.827586 17.8105V16.9656C0.827586 16.7376 0.642207 16.5518 0.413793 16.5518H0V17.1075C0 17.4882 0.0438621 17.861 0.122483 18.2243H0.413793Z" fill="#6155CC"/>
<path d="M14.9203 11.5864H12.4136V14.483H17.5032L16.367 12.438C16.0756 11.9129 15.5212 11.5864 14.9203 11.5864Z" fill="#6155CC"/>
<path d="M23.1724 18.6208H19.8621V18.207C19.8621 17.0662 20.7902 16.138 21.931 16.138H22.5025C22.2546 15.9109 21.9497 15.7416 21.6054 15.6556L19.9982 15.2538L18.1866 11.8896C17.5366 10.6814 16.2799 9.93115 14.9077 9.93115H5.23738C2.34952 9.93115 0 12.2807 0 15.1685V15.7243H0.413793C1.09821 15.7243 1.65517 16.2812 1.65517 16.9656V17.8106C1.65517 18.495 1.09821 19.052 0.413793 19.052H0.374069C0.614069 19.6528 0.969103 20.206 1.42386 20.6898H2.48276V16.7232L0.808138 15.0485L0.830069 14.8507C1.08952 12.5178 3.05503 10.7587 5.40248 10.7587H14.9206C15.8218 10.7587 16.6535 11.2483 17.0909 12.0357L18.6207 14.7895V19.1567C18.883 19.078 19.1607 19.0346 19.4483 19.0346C20.6007 19.0346 21.595 19.7128 22.0614 20.6898H23.1724V18.6208Z" fill="#6155CC"/>
<path d="M8.24268 21.5171C8.26212 21.6528 8.27578 21.7902 8.27578 21.9309C8.27578 22.0716 8.26212 22.209 8.24268 22.3447H16.5847C16.5653 22.209 16.5516 22.0716 16.5516 21.9309C16.5516 21.7902 16.5653 21.6528 16.5847 21.5171H8.24268Z" fill="#6155CC"/>
<path fill-rule="evenodd" clip-rule="evenodd" d="M17.3794 21.9313C17.3794 20.7904 18.3075 19.8623 19.4484 19.8623C20.5892 19.8623 21.5173 20.7904 21.5173 21.9313C21.5173 23.0721 20.5892 24.0002 19.4484 24.0002C18.3075 24.0002 17.3794 23.0721 17.3794 21.9313ZM18.207 21.9313C18.207 22.6157 18.7639 23.1726 19.4484 23.1726C20.1328 23.1726 20.6897 22.6157 20.6897 21.9313C20.6897 21.2469 20.1328 20.6899 19.4484 20.6899C18.7639 20.6899 18.207 21.2469 18.207 21.9313Z" fill="#6155CC"/>
<path d="M22.3115 21.5171C22.331 21.6528 22.3446 21.7902 22.3446 21.9309C22.3446 22.0716 22.331 22.209 22.3115 22.3447H23.9998V21.5171H22.3115Z" fill="#6155CC"/>
<path d="M17.7929 19.5577V15.3105H12.4136V16.1381H14.0687V16.9657H12.4136V20.6899H16.835C17.0522 20.2347 17.3828 19.8445 17.7929 19.5577Z" fill="#6155CC"/>
<path d="M19.4485 22.3447C19.677 22.3447 19.8623 22.1594 19.8623 21.9309C19.8623 21.7024 19.677 21.5171 19.4485 21.5171C19.2199 21.5171 19.0347 21.7024 19.0347 21.9309C19.0347 22.1594 19.2199 22.3447 19.4485 22.3447Z" fill="#6155CC"/>
<path d="M5.79292 2.06907C5.79292 1.84107 5.60754 1.65527 5.37913 1.65527H4.96533V2.48286H5.37913C5.60754 2.48286 5.79292 2.29707 5.79292 2.06907Z" fill="#6155CC"/>
<path fill-rule="evenodd" clip-rule="evenodd" d="M3.31055 5.37931C3.31055 5.60731 3.49593 5.7931 3.72434 5.7931H16.1381C16.3665 5.7931 16.5519 5.60731 16.5519 5.37931V0.413793C16.5519 0.185793 16.3665 0 16.1381 0H3.72434C3.49593 0 3.31055 0.185793 3.31055 0.413793V5.37931ZM13.2416 0.827586H15.7243V1.65517H14.8968V4.96552H14.0692V1.65517H13.2416V0.827586ZM11.082 0.827586H9.93124V4.96552H10.7588V2.94745L11.2632 4.96552H12.414V0.827586H11.5864V2.84566L11.082 0.827586ZM7.44848 0.827586H9.10365V1.65517H8.27606V2.48276H9.10365V3.31034H8.27606V4.13793H9.10365V4.96552H7.44848V0.827586ZM5.37951 0.827586H4.13813V4.96552H4.96572V3.31034H5.37951C5.60793 3.31034 5.79331 3.49614 5.79331 3.72414V4.96552H6.62089V3.72414C6.62089 3.4051 6.49675 3.11669 6.29813 2.89655C6.49634 2.67641 6.62089 2.388 6.62089 2.06897C6.62089 1.38455 6.06393 0.827586 5.37951 0.827586Z" fill="#6155CC"/>
<path d="M5.23741 9.10336H6.20693V6.62061H4.55176V9.14474C4.77728 9.1195 5.00528 9.10336 5.23741 9.10336Z" fill="#6155CC"/>
<path d="M14.9078 9.10336C15.0435 9.10336 15.1768 9.11909 15.3104 9.13067V6.62061H13.6553V9.10336H14.9078Z" fill="#6155CC"/>
</svg>
