<svg width="32" height="32" viewBox="0 0 32 32" fill="none" xmlns="http://www.w3.org/2000/svg">
<rect opacity="0.2" width="32" height="32" rx="12" fill="#3EC8BC"/>
<path fill-rule="evenodd" clip-rule="evenodd" d="M10.489 14.6832C11.8236 12.9793 13.8548 11.9905 16 12.0001C19.8597 12.0001 23 15.14 23 18.9998C23 22.8595 19.8597 25.9997 16 25.9997C14.0795 26.0098 12.24 25.2173 10.9135 23.8089C8.53382 21.306 8.35232 17.4018 10.489 14.6832ZM17.0658 21.0743C17.2328 21.1815 17.4538 21.1306 17.5593 20.9613C17.6648 20.7917 17.6148 20.5675 17.4477 20.4605L15.7659 19.3839V15.9049C15.7659 15.7042 15.6055 15.5419 15.408 15.5419C15.2103 15.5419 15.0501 15.7042 15.0501 15.9049V19.5841C15.0501 19.7086 15.113 19.8243 15.2169 19.8909L17.0658 21.0743Z" fill="#3EC8BC"/>
<path d="M10.8148 8.70129H22.6442C22.8406 8.70129 23 8.53747 23 8.33573C23 8.13382 22.8406 7.97034 22.6442 7.97034H10.8148C10.6183 7.97034 10.459 8.13382 10.459 8.33573C10.459 8.53747 10.6183 8.70129 10.8148 8.70129Z" fill="#3EC8BC"/>
<path d="M12.3649 10.6711C12.5089 10.6713 12.6384 10.5822 12.6936 10.4455C12.7487 10.3088 12.7183 10.1517 12.6164 10.0471L10.9508 8.3357L12.6164 6.62415C12.7553 6.48143 12.7553 6.24993 12.6164 6.10704C12.4775 5.96432 12.2524 5.96432 12.1134 6.10704L10.1961 8.07755C10.0572 8.22028 10.0572 8.45177 10.1961 8.59433L12.1132 10.5642C12.1799 10.6327 12.2704 10.6713 12.3649 10.6711Z" fill="#3EC8BC"/>
</svg>
