<svg width="32" height="32" viewBox="0 0 32 32" fill="none" xmlns="http://www.w3.org/2000/svg">
<rect opacity="0.2" width="32" height="32" rx="12" fill="#F77777"/>
<path fill-rule="evenodd" clip-rule="evenodd" d="M21.511 14.6832C20.1764 12.9793 18.1452 11.9905 16 12.0001C12.1403 12.0001 9 15.14 9 18.9998C9 22.8595 12.1403 25.9997 16 25.9997C17.9205 26.0098 19.76 25.2173 21.0865 23.8089C23.4662 21.306 23.6477 17.4018 21.511 14.6832ZM14.9342 21.0743C14.7672 21.1815 14.5462 21.1306 14.4407 20.9613C14.3352 20.7917 14.3852 20.5675 14.5523 20.4605L16.2341 19.3839V15.9049C16.2341 15.7042 16.3945 15.5419 16.592 15.5419C16.7897 15.5419 16.9499 15.7042 16.9499 15.9049V19.5841C16.9499 19.7086 16.887 19.8243 16.7831 19.8909L14.9342 21.0743Z" fill="#F77777"/>
<path d="M21.1852 8.70129H9.35576C9.15942 8.70129 9 8.53747 9 8.33573C9 8.13382 9.15942 7.97034 9.35576 7.97034H21.1852C21.3817 7.97034 21.541 8.13382 21.541 8.33573C21.541 8.53747 21.3817 8.70129 21.1852 8.70129Z" fill="#F77777"/>
<path d="M19.6351 10.6711C19.4911 10.6713 19.3616 10.5822 19.3064 10.4455C19.2513 10.3088 19.2817 10.1517 19.3836 10.0471L21.0492 8.3357L19.3836 6.62415C19.2447 6.48143 19.2447 6.24993 19.3836 6.10704C19.5225 5.96432 19.7476 5.96432 19.8866 6.10704L21.8039 8.07755C21.9428 8.22028 21.9428 8.45177 21.8039 8.59433L19.8868 10.5642C19.8201 10.6327 19.7296 10.6713 19.6351 10.6711Z" fill="#F77777"/>
</svg>
