<svg width="32" height="32" viewBox="0 0 32 32" fill="none" xmlns="http://www.w3.org/2000/svg">
<rect opacity="0.2" width="32" height="32" rx="12" fill="#6155CC"/>
<path d="M16 6.3999C13.3532 6.3999 11.2 8.67094 11.2 11.4624C11.2 14.2539 13.3532 16.5249 16 16.5249C18.6467 16.5249 20.8 14.2539 20.8 11.4624C20.8 8.67094 18.6467 6.3999 16 6.3999Z" fill="#6155CC"/>
<path d="M21.9721 19.8322C20.658 18.4249 18.9159 17.6499 17.0667 17.6499H14.9333C13.0842 17.6499 11.342 18.4249 10.0279 19.8322C8.72018 21.2326 8 23.0811 8 25.0374C8 25.3481 8.23879 25.5999 8.53333 25.5999H23.4667C23.7612 25.5999 24 25.3481 24 25.0374C24 23.0811 23.2798 21.2326 21.9721 19.8322Z" fill="#6155CC"/>
</svg>
