<svg width="32" height="32" viewBox="0 0 32 32" fill="none" xmlns="http://www.w3.org/2000/svg">
<rect opacity="0.2" width="32" height="32" rx="12" fill="#F97674"/>
<path d="M6.65093 14.272C6.78047 14.4009 6.99047 14.4009 7.12002 14.272L8.05821 13.3375C8.18393 13.2079 8.18213 13.0018 8.05417 12.8744C7.9262 12.747 7.71928 12.7452 7.58911 12.8704L7.264 13.1944C7.51688 10.6678 8.92909 8.39965 11.0894 7.05044C11.2443 6.95266 11.2903 6.74835 11.1921 6.5941C11.0939 6.43985 10.8887 6.39408 10.7338 6.49186C8.3565 7.97754 6.82107 10.4915 6.58988 13.2767L6.18183 12.8704C6.09854 12.7845 5.97519 12.7501 5.8592 12.7803C5.74321 12.8105 5.65263 12.9007 5.62227 13.0162C5.59191 13.1317 5.6265 13.2545 5.71274 13.3375L6.65093 14.272Z" fill="#F97674"/>
<path d="M20.4873 8.42334C20.6705 8.42334 20.819 8.27545 20.819 8.09302V7.43403C22.9114 8.98957 24.1416 11.4388 24.1365 14.0388C24.1365 14.2213 24.2851 14.3691 24.4683 14.3691C24.6515 14.3691 24.8 14.2213 24.8 14.0388C24.8052 11.3429 23.5798 8.79077 21.4693 7.10205H21.8143C21.9975 7.10205 22.146 6.95416 22.146 6.77173C22.146 6.5893 21.9975 6.44141 21.8143 6.44141H20.4873C20.3172 6.44236 20.1759 6.57252 20.1618 6.74134V6.74762C20.1618 6.7562 20.1569 6.76314 20.1569 6.77173V8.09302C20.1569 8.27494 20.3046 8.42261 20.4873 8.42334Z" fill="#F97674"/>
<path d="M9.43398 15.6904H11.9659C11.9104 15.252 11.8772 14.811 11.8664 14.3691H9.22034C9.24386 14.8159 9.31549 15.2589 9.43398 15.6904Z" fill="#F97674"/>
<path fill-rule="evenodd" clip-rule="evenodd" d="M18.165 20.9756C18.165 22.435 16.9768 23.6182 15.5111 23.6182C14.046 23.6165 12.8587 22.4344 12.8571 20.9756C12.8571 19.5161 14.0453 18.333 15.5111 18.333C16.9768 18.333 18.165 19.5161 18.165 20.9756ZM14.5306 20.4848C14.6126 20.9599 15.0269 21.3068 15.5111 21.3059C15.6943 21.3059 15.8428 21.4538 15.8428 21.6362C15.8428 21.8187 15.6943 21.9666 15.5111 21.9666C15.3278 21.9666 15.1793 21.8187 15.1793 21.6362C15.1793 21.4538 15.0308 21.3059 14.8476 21.3059C14.6643 21.3059 14.5158 21.4538 14.5158 21.6362C14.5175 22.0547 14.7831 22.4269 15.1793 22.5664V22.9575C15.1793 23.14 15.3278 23.2878 15.5111 23.2878C15.6943 23.2878 15.8428 23.14 15.8428 22.9575V22.5664C16.2995 22.4063 16.5735 21.9415 16.4915 21.4664C16.4095 20.9913 15.9952 20.6444 15.5111 20.6453C15.3278 20.6453 15.1793 20.4974 15.1793 20.3149C15.1793 20.1325 15.3278 19.9846 15.5111 19.9846C15.6943 19.9846 15.8428 20.1325 15.8428 20.3149C15.8428 20.4974 15.9913 20.6453 16.1746 20.6453C16.3578 20.6453 16.5063 20.4974 16.5063 20.3149C16.5046 19.8965 16.239 19.5242 15.8428 19.3848V18.9937C15.8428 18.8112 15.6943 18.6633 15.5111 18.6633C15.3278 18.6633 15.1793 18.8112 15.1793 18.9937V19.3848C14.7226 19.5449 14.4486 20.0097 14.5306 20.4848Z" fill="#F97674"/>
<path d="M9.22461 13.7085H11.8703C11.8873 12.8182 11.9998 11.9323 12.206 11.0659H9.96176C9.52202 11.8813 9.2702 12.7841 9.22461 13.7085H9.22461Z" fill="#F97674"/>
<path d="M18.8285 20.9756C18.8265 22.7991 17.3424 24.2768 15.511 24.2788H21.8418C21.9845 23.4477 22.6383 22.7967 23.473 22.6546V19.2966C22.6383 19.1545 21.9845 18.5035 21.8418 17.6724H15.511C17.3424 17.6744 18.8265 19.1521 18.8285 20.9756Z" fill="#F97674"/>
<path d="M9.18016 24.2788H15.5109C13.6787 24.2788 12.1934 22.7999 12.1934 20.9756C12.1934 19.1513 13.6787 17.6724 15.5109 17.6724H9.18016C9.03746 18.5035 8.38364 19.1545 7.54895 19.2966V22.6546C8.38364 22.7967 9.03746 23.4477 9.18016 24.2788Z" fill="#F97674"/>
<path d="M12.3925 10.4051C12.6433 9.53665 13.0755 8.73069 13.6608 8.04004C12.3367 8.449 11.1843 9.28003 10.3811 10.4051H12.3925Z" fill="#F97674"/>
<path d="M15.1792 15.6904V14.3691H12.5378C12.5486 14.8111 12.583 15.2521 12.641 15.6904H15.1792Z" fill="#F97674"/>
<path d="M15.1793 7.80615C14.333 8.01326 13.5832 9.0006 13.0979 10.4051H15.1793V7.80615Z" fill="#F97674"/>
<path d="M15.1793 11.0659H12.8945C12.6737 11.9303 12.5526 12.8168 12.5336 13.7085H15.1793V11.0659Z" fill="#F97674"/>
<path d="M15.8428 13.7085H18.4885C18.4694 12.8168 18.3483 11.9303 18.1275 11.0659H15.8428V13.7085Z" fill="#F97674"/>
<path d="M17.3624 8.04004C17.9473 8.73081 18.379 9.53676 18.6294 10.4051H20.6394C19.8369 9.28049 18.6856 8.44951 17.3624 8.04004V8.04004Z" fill="#F97674"/>
<path d="M21.588 15.6904C21.7065 15.2589 21.7781 14.8159 21.8017 14.3691H19.154C19.1432 14.811 19.1099 15.252 19.0544 15.6904H21.588Z" fill="#F97674"/>
<path d="M15.8428 15.6904H18.381C18.439 15.2521 18.4734 14.8111 18.4842 14.3691H15.8428V15.6904Z" fill="#F97674"/>
<path d="M15.8428 7.80615V10.4051H17.9242C17.4388 9.0006 16.6891 8.01326 15.8428 7.80615Z" fill="#F97674"/>
<path d="M18.8159 11.0659C19.0221 11.9323 19.1347 12.8182 19.1516 13.7085H21.7974C21.7518 12.7841 21.4999 11.8813 21.0602 11.0659H18.8159Z" fill="#F97674"/>
<path fill-rule="evenodd" clip-rule="evenodd" d="M11.3538 25.6001H8.79993V17.6001H24.7999V20.2001C24.7999 20.0344 24.6691 19.9001 24.5076 19.9001C23.8619 19.9001 23.3384 19.3628 23.3384 18.7001C23.3384 18.5344 23.2075 18.4001 23.0461 18.4001H11.3538C11.1923 18.4001 11.0615 18.5344 11.0615 18.7001C11.0615 19.3628 10.538 19.9001 9.89223 19.9001C9.7308 19.9001 9.59993 20.0344 9.59993 20.2001V23.8001C9.59993 23.9658 9.7308 24.1001 9.89223 24.1001C10.538 24.1001 11.0615 24.6374 11.0615 25.3001C11.0615 25.4658 11.1923 25.6001 11.3538 25.6001ZM23.0461 25.6001H24.7999V23.8001C24.7999 23.9658 24.6691 24.1001 24.5076 24.1001C23.8619 24.1001 23.3384 24.6374 23.3384 25.3001C23.3384 25.4658 23.2075 25.6001 23.0461 25.6001Z" fill="#F97674"/>
</svg>
