<svg width="22" height="24" viewBox="0 0 22 24" fill="none" xmlns="http://www.w3.org/2000/svg">
<path d="M6.4248 1.71436H7.33906V4.28589H6.4248V1.71436Z" fill="#6155CC"/>
<path d="M2.76776 1.71436H3.68202V4.28589H2.76776V1.71436Z" fill="#6155CC"/>
<path fill-rule="evenodd" clip-rule="evenodd" d="M8.32653 0H1.78024C1.06344 0.000732422 0.482581 0.545288 0.481995 1.2171V4.7829C0.482581 5.45471 1.06344 5.99927 1.78024 6H8.32653C9.04313 5.99927 9.62399 5.45471 9.62477 4.7829V1.2171C9.62399 0.545288 9.04313 0.000732422 8.32653 0ZM4.59625 4.71423C4.59625 4.95099 4.39156 5.14288 4.13903 5.14288H2.31051C2.05797 5.14288 1.85328 4.95099 1.85328 4.71423V1.28577C1.85328 1.04901 2.05797 0.857117 2.31051 0.857117H4.13903C4.39156 0.857117 4.59625 1.04901 4.59625 1.28577V4.71423ZM7.79625 5.14288C8.04879 5.14288 8.25328 4.95099 8.25328 4.71423V1.28577C8.25328 1.04901 8.04879 0.857117 7.79625 0.857117H5.96774C5.7152 0.857117 5.51051 1.04901 5.51051 1.28577V4.71423C5.51051 4.95099 5.7152 5.14288 5.96774 5.14288H7.79625Z" fill="#6155CC"/>
<path fill-rule="evenodd" clip-rule="evenodd" d="M15.5677 3H14.6533V6.42865H15.5677V3ZM20.139 3H19.2248V6.42865H20.139V3ZM17.8533 24H16.939V19.7142H17.8533V24ZM16.0248 18.8571H18.7677V17.1429H16.0248V18.8571ZM21.0533 11.541C21.0588 13.3079 20.3345 15.0082 19.0324 16.2858H15.7601C14.458 15.0082 13.7338 13.3079 13.739 11.541V9.85712H21.0533V11.541ZM12.8248 9H21.9675H21.9677V7.28577H12.8248V9Z" fill="#6155CC"/>
<path d="M10.9963 14.9999H5.71892L7.76599 10.0109C7.85681 9.79003 7.73943 9.54211 7.50388 9.45696C7.32517 9.39233 7.12263 9.43902 6.99626 9.57379L0.139037 16.8596C-0.0277598 17.0372 -0.00940041 17.308 0.180053 17.4643C0.263451 17.5334 0.370873 17.5713 0.482006 17.5715H5.77615L3.70837 22.9989C3.62341 23.2217 3.74705 23.4671 3.98474 23.5467C4.1654 23.6075 4.36736 23.5559 4.49021 23.4175L11.3472 15.7032C11.5092 15.5216 11.4832 15.2513 11.2894 15.0995C11.2072 15.0351 11.1035 14.9999 10.9963 14.9999Z" fill="#6155CC"/>
</svg>
