<svg width="24" height="24" viewBox="0 0 24 24" fill="none" xmlns="http://www.w3.org/2000/svg">
<path d="M1.26104 9.94372C1.4165 10.1066 1.6685 10.1066 1.82395 9.94372L2.94978 8.76332C3.10065 8.5996 3.09849 8.33936 2.94493 8.17841C2.79137 8.01746 2.54307 8.0152 2.38687 8.17333L1.99673 8.58265C2.30019 5.39112 3.99484 2.52608 6.58721 0.821809C6.77311 0.698293 6.82827 0.440216 6.71042 0.245378C6.59258 0.0505409 6.34635 -0.0072765 6.16045 0.11624C3.30773 1.99289 1.46521 5.16844 1.18779 8.68655L0.698129 8.17333C0.598177 8.06486 0.450162 8.02136 0.310975 8.05955C0.171787 8.09773 0.0630885 8.21166 0.0266562 8.35754C-0.00977602 8.50342 0.0317282 8.65856 0.135217 8.76332L1.26104 9.94372Z" fill="#6155CC"/>
<path d="M17.8648 2.55574C18.0846 2.55574 18.2629 2.36893 18.2629 2.13849V1.30608C20.7737 3.27097 22.25 6.36475 22.2439 9.64899C22.2439 9.87943 22.4221 10.0662 22.642 10.0662C22.8618 10.0662 23.0401 9.87943 23.0401 9.64899C23.0463 6.24365 21.5758 3.01986 19.0431 0.886745H19.4572C19.677 0.886745 19.8553 0.699936 19.8553 0.469496C19.8553 0.239055 19.677 0.0522461 19.4572 0.0522461H17.8648C17.6606 0.0534564 17.4911 0.217867 17.4742 0.431109V0.439036C17.4742 0.449885 17.4683 0.458647 17.4683 0.469496V2.13849C17.4683 2.36828 17.6455 2.55482 17.8648 2.55574Z" fill="#6155CC"/>
<path d="M4.60061 11.7349H7.63891C7.5723 11.181 7.53244 10.624 7.51948 10.0659H4.34424C4.37247 10.6303 4.45842 11.1898 4.60061 11.7349Z" fill="#6155CC"/>
<path fill-rule="evenodd" clip-rule="evenodd" d="M15.0781 18.4112C15.0781 20.2548 13.6522 21.7492 11.8933 21.7492C10.1352 21.7472 8.71047 20.2539 8.7085 18.4112C8.7085 16.5677 10.1344 15.0732 11.8933 15.0732C13.6522 15.0732 15.0781 16.5677 15.0781 18.4112ZM10.7168 17.7913C10.8152 18.3914 11.3123 18.8296 11.8933 18.8285C12.1132 18.8285 12.2914 19.0153 12.2914 19.2457C12.2914 19.4762 12.1132 19.663 11.8933 19.663C11.6734 19.663 11.4952 19.4762 11.4952 19.2457C11.4952 19.0153 11.317 18.8285 11.0971 18.8285C10.8772 18.8285 10.699 19.0153 10.699 19.2457C10.7011 19.7743 11.0197 20.2445 11.4952 20.4207V20.9147C11.4952 21.1452 11.6734 21.332 11.8933 21.332C12.1132 21.332 12.2914 21.1452 12.2914 20.9147V20.4207C12.8394 20.2184 13.1683 19.6313 13.0698 19.0312C12.9714 18.4311 12.4743 17.9928 11.8933 17.994C11.6734 17.994 11.4952 17.8072 11.4952 17.5767C11.4952 17.3463 11.6734 17.1595 11.8933 17.1595C12.1132 17.1595 12.2914 17.3463 12.2914 17.5767C12.2914 17.8072 12.4696 17.994 12.6895 17.994C12.9094 17.994 13.0876 17.8072 13.0876 17.5767C13.0855 17.0482 12.7669 16.578 12.2914 16.4018V15.9077C12.2914 15.6773 12.1132 15.4905 11.8933 15.4905C11.6734 15.4905 11.4952 15.6773 11.4952 15.9077V16.4018C10.9472 16.6041 10.6183 17.1911 10.7168 17.7913Z" fill="#6155CC"/>
<path d="M4.34961 9.23155H7.52445C7.5448 8.10701 7.67986 6.98798 7.92733 5.89355H5.23419C4.7065 6.92357 4.40432 8.06385 4.34961 9.23155H4.34961Z" fill="#6155CC"/>
<path d="M15.8741 18.4113C15.8716 20.7146 14.0907 22.5812 11.8931 22.5838H19.49C19.6612 21.5339 20.4458 20.7116 21.4475 20.5321V16.2904C20.4458 16.1109 19.6612 15.2886 19.49 14.2388H11.8931C14.0907 14.2413 15.8716 16.1079 15.8741 18.4113Z" fill="#6155CC"/>
<path d="M4.29632 22.5838H11.8933C9.69461 22.5838 7.91226 20.7157 7.91226 18.4113C7.91226 16.1069 9.69461 14.2388 11.8933 14.2388H4.29632C4.12508 15.2886 3.3405 16.1109 2.33887 16.2904V20.5321C3.3405 20.7116 4.12508 21.5339 4.29632 22.5838Z" fill="#6155CC"/>
<path d="M8.15098 5.05928C8.45191 3.96223 8.97054 2.94417 9.67291 2.07178C8.08398 2.58836 6.70113 3.63808 5.7373 5.05928H8.15098Z" fill="#6155CC"/>
<path d="M11.4954 11.7349V10.0659H8.32568C8.3386 10.6242 8.37993 11.1813 8.44949 11.7349H11.4954Z" fill="#6155CC"/>
<path d="M11.4952 1.77637C10.4797 2.03798 9.57998 3.28514 8.99756 5.05929H11.4952V1.77637Z" fill="#6155CC"/>
<path d="M11.4952 5.89355H8.75344C8.48849 6.98535 8.34318 8.10525 8.32031 9.23155H11.4952V5.89355Z" fill="#6155CC"/>
<path d="M12.2915 9.23155H15.4663C15.4435 8.10525 15.2982 6.98535 15.0332 5.89355H12.2915V9.23155Z" fill="#6155CC"/>
<path d="M14.1152 2.07178C14.817 2.94432 15.3351 3.96237 15.6356 5.05928H18.0477C17.0847 3.63866 15.703 2.58901 14.1152 2.07178V2.07178Z" fill="#6155CC"/>
<path d="M19.1858 11.7349C19.328 11.1898 19.4139 10.6303 19.4422 10.0659H16.2649C16.252 10.624 16.2121 11.181 16.1455 11.7349H19.1858Z" fill="#6155CC"/>
<path d="M12.2915 11.7349H15.3374C15.4069 11.1813 15.4482 10.6242 15.4612 10.0659H12.2915V11.7349Z" fill="#6155CC"/>
<path d="M12.2915 1.77637V5.05929H14.7892C14.2068 3.28514 13.3071 2.03798 12.2915 1.77637Z" fill="#6155CC"/>
<path d="M15.8589 5.89355C16.1064 6.98798 16.2414 8.10701 16.2618 9.23155H19.4366C19.3819 8.06385 19.0797 6.92357 18.552 5.89355L15.8589 5.89355Z" fill="#6155CC"/>
<path fill-rule="evenodd" clip-rule="evenodd" d="M6.46095 23.9998H3.6001V15.1577H19.2001L19.2001 18.3156C19.2001 18.1412 19.0761 17.9998 18.9232 17.9998C18.3114 17.9998 17.8155 17.4343 17.8155 16.7367C17.8155 16.5623 17.6915 16.4209 17.5386 16.4209H6.46164C6.3087 16.4209 6.18471 16.5623 6.18471 16.7367C6.18471 17.4343 5.68878 17.9998 5.07702 17.9998C4.92408 17.9998 4.8001 18.1412 4.8001 18.3156V22.1051C4.8001 22.2795 4.92408 22.4209 5.07702 22.4209C5.68878 22.4209 6.18471 22.9864 6.18471 23.684C6.18471 23.8582 6.30832 23.9994 6.46095 23.9998ZM17.5392 23.9998H19.2001L19.2001 22.1051C19.2001 22.2795 19.0761 22.4209 18.9232 22.4209C18.3114 22.4209 17.8155 22.9864 17.8155 23.684C17.8155 23.8582 17.6919 23.9994 17.5392 23.9998Z" fill="#6155CC"/>
</svg>
