<svg width="32" height="32" viewBox="0 0 32 32" fill="none" xmlns="http://www.w3.org/2000/svg">
<g id="Group 12">
<rect id="Rectangle Copy 3" opacity="0.2" width="32" height="32" rx="8" fill="#F77777"/>
<g id="luggage">
<path id="Path" d="M13.7052 8.73657H14.3969V11.1747H13.7052V8.73657Z" fill="#F77777"/>
<path id="Path_2" d="M17.1637 8.73657H17.8554V11.1747H17.1637V8.73657Z" fill="#F77777"/>
<path id="Path_3" d="M13.0135 7.82227H18.5471V8.43179H13.0135V7.82227Z" fill="#F77777"/>
<path id="Path_4" d="M17.5096 13.9175H17.8554V14.527H17.5096V13.9175Z" fill="#F77777"/>
<path id="Path_5" d="M12.7945 20.5925L14.5911 19.6782L14.9368 20.2058L13.1402 21.1202L12.7945 20.5925Z" fill="#F77777"/>
<path id="Shape" fill-rule="evenodd" clip-rule="evenodd" d="M19.5847 12.3938H11.976C11.403 12.3938 10.9384 12.8032 10.9384 13.3081V22.7557C10.9398 23.2099 11.3199 23.5939 11.8304 23.6569C12.0783 23.285 12.5324 23.0578 13.0218 23.0605C13.5112 23.0631 13.9619 23.2954 14.2046 23.67H17.7019C17.9356 23.3093 18.3629 23.0792 18.8337 23.0608C19.3047 23.0422 19.7535 23.2377 20.0229 23.5786C20.3863 23.4294 20.6197 23.109 20.6222 22.7557V13.3081C20.6222 12.8032 20.1576 12.3938 19.5847 12.3938ZM15.5826 20.5816L13.1864 21.8006C13.0209 21.8847 12.8095 21.8347 12.7139 21.689L12.0222 20.6334C11.9268 20.4875 11.9836 20.3012 12.1489 20.217L14.545 18.998C14.7103 18.9139 14.9219 18.9637 15.0173 19.1096L15.709 20.1652C15.8046 20.3111 15.7479 20.4974 15.5826 20.5816ZM16.1262 17.5748C16.3172 17.5748 16.472 17.4383 16.472 17.27V16.0509C16.472 15.8826 16.3172 15.7462 16.1262 15.7462H13.3594C13.1684 15.7462 13.0135 15.8826 13.0135 16.0509V17.27C13.0135 17.4383 13.1684 17.5748 13.3594 17.5748H16.1262ZM19.5397 19.8584C19.4783 19.9538 19.3634 20.0128 19.2388 20.0128H17.1637C17.0391 20.0128 16.9241 19.9538 16.8628 19.8581C16.8013 19.7625 16.8032 19.6453 16.8673 19.5511L17.9049 18.0273C17.9719 17.9413 18.0829 17.8899 18.2013 17.8899C18.3196 17.8899 18.4306 17.9413 18.4976 18.0273L19.5352 19.5511C19.5995 19.6453 19.6012 19.7627 19.5397 19.8584ZM18.5471 13.9176H19.5847V13.3081H11.976V13.9176H16.8179V14.8319C16.8179 15.0002 16.9727 15.1367 17.1637 15.1367H18.2013C18.3923 15.1367 18.5471 15.0002 18.5471 14.8319V13.9176Z" fill="#F77777"/>
<path id="Path_6" d="M17.7749 19.4033H18.6277L18.2013 18.7764L17.7749 19.4033Z" fill="#F77777"/>
<path id="Path_7" d="M13.7052 16.3557H15.7803V16.9652H13.7052V16.3557Z" fill="#F77777"/>
<path id="Path_8" d="M19.5847 24.2794C19.5847 24.6161 19.275 24.889 18.893 24.889C18.511 24.889 18.2013 24.6161 18.2013 24.2794C18.2013 23.9428 18.511 23.6699 18.893 23.6699C19.275 23.6699 19.5847 23.9428 19.5847 24.2794Z" fill="#F77777"/>
<path id="Path_9" d="M13.7052 24.2794C13.7052 24.6161 13.3955 24.889 13.0135 24.889C12.6315 24.889 12.3218 24.6161 12.3218 24.2794C12.3218 23.9428 12.6315 23.6699 13.0135 23.6699C13.3955 23.6699 13.7052 23.9428 13.7052 24.2794Z" fill="#F77777"/>
<path id="Path_10" d="M13.7052 11.4795H17.8554V12.089H13.7052V11.4795Z" fill="#F77777"/>
</g>
</g>
</svg>
