<svg width="33" height="35" viewBox="0 0 33 35" fill="none" xmlns="http://www.w3.org/2000/svg">
<g id="Group">
<g id="flight copy">
<path id="Path" d="M24.3941 19.9198L25.5255 18.7885L23.5902 11.1963L26.7015 8.08508C27.171 7.61555 27.1511 6.8376 26.6568 6.34336C26.1626 5.84912 25.3847 5.82918 24.9151 6.2987L21.8039 9.40996L14.2118 7.47474L13.0804 8.60612L19.2583 11.9556L16.147 15.0669L14.1076 14.7245L13.259 15.573L15.9088 17.0914L17.4272 19.7412L18.2758 18.8927L17.9334 16.8532L21.0447 13.7419L24.3941 19.9198Z" fill="#3EC8BC"/>
</g>
<g id="hotel (1) copy">
<path id="Shape" fill-rule="evenodd" clip-rule="evenodd" d="M18.418 32.3408C19.3295 32.0845 20 31.2463 20 30.2539C20 29.0585 19.0275 28.0859 17.832 28.0859C16.6366 28.0859 15.6641 29.0585 15.6641 30.2539C15.6641 31.2463 16.3345 32.0845 17.2461 32.3408V33.8281H14.7982V18.0859H11.541V15H10.4869V16.1078H9.51313V15H8.45898V18.0859H5.20188V33.8281H2.75391V32.4189C3.66547 32.1626 4.33594 31.3244 4.33594 30.332C4.33594 29.1366 3.3634 28.1641 2.16797 28.1641C0.972539 28.1641 0 29.1366 0 30.332C0 31.3244 0.670469 32.1626 1.58203 32.4189V33.8281H0V35H20V33.8281H18.418V32.3408ZM11.0807 22.6432V20.9766H12.2526V22.6432L11.0807 22.6432ZM12.2526 23.8932H11.0807V25.5599H12.2526V23.8932ZM11.0807 26.8099H12.2526V28.4766H11.0807V26.8099ZM10.4869 16.9743H9.51313V18.0859H10.4869V16.9743ZM7.74738 22.6432V20.9766H8.91926V22.6432L7.74738 22.6432ZM8.91926 23.8932H7.74738V25.5599H8.91926V23.8932ZM7.74738 26.8099H8.91926V28.4766H7.74738V26.8099ZM11.1263 33.8281H12.2981V30.6641H7.70184V33.8281H8.87371V31.8359H11.1263V33.8281Z" fill="#3EC8BC"/>
</g>
</g>
</svg>
