<svg width="24" height="47" viewBox="0 0 24 47" fill="none" xmlns="http://www.w3.org/2000/svg">
<g id="Group 4">
<g id="Group">
<path id="Oval" fill-rule="evenodd" clip-rule="evenodd" d="M12 31C12.5523 31 13 30.5523 13 30C13 29.4477 12.5523 29 12 29C11.4477 29 11 29.4477 11 30C11 30.5523 11.4477 31 12 31Z" fill="#6155CC"/>
<path id="Oval Copy" fill-rule="evenodd" clip-rule="evenodd" d="M12 35C12.5523 35 13 34.5523 13 34C13 33.4477 12.5523 33 12 33C11.4477 33 11 33.4477 11 34C11 34.5523 11.4477 35 12 35Z" fill="#6155CC"/>
<path id="Oval Copy 2" fill-rule="evenodd" clip-rule="evenodd" d="M12 39C12.5523 39 13 38.5523 13 38C13 37.4477 12.5523 37 12 37C11.4477 37 11 37.4477 11 38C11 38.5523 11.4477 39 12 39Z" fill="#6155CC"/>
<path id="Oval Copy 4" fill-rule="evenodd" clip-rule="evenodd" d="M12 43C12.5523 43 13 42.5523 13 42C13 41.4477 12.5523 41 12 41C11.4477 41 11 41.4477 11 42C11 42.5523 11.4477 43 12 43Z" fill="#6155CC"/>
<path id="Oval Copy 3" fill-rule="evenodd" clip-rule="evenodd" d="M12 47C12.5523 47 13 46.5523 13 46C13 45.4477 12.5523 45 12 45C11.4477 45 11 45.4477 11 46C11 46.5523 11.4477 47 12 47Z" fill="#6155CC"/>
</g>
<g id="flight copy 2">
<path id="Path" d="M0 7.2L0 9.60001L10.1053 15.6L10.1053 22.2C10.1053 23.196 10.9516 24 12 24C13.0485 24 13.8948 23.196 13.8948 22.2L13.8948 15.6L24 9.60001L24 7.2L13.8947 10.2V3.6L16.421 1.8V0L12 1.19998L7.57895 0V1.8L10.1053 3.6V10.2L0 7.2Z" fill="#6155CC"/>
</g>
</g>
</svg>
