<svg width="24" height="24" viewBox="0 0 24 24" fill="none" xmlns="http://www.w3.org/2000/svg">
<path d="M6.6577 6.42259L7.1823 5.89593L2.51878 1.22038C2.37395 1.07498 2.13921 1.07498 1.99437 1.22038C1.84953 1.36579 1.84953 1.60145 1.99437 1.74685L6.6577 6.42259Z" fill="#6155CC"/>
<path d="M5.83128 7.21159L6.35588 6.68493L1.71654 2.02556C1.5717 1.88015 1.33696 1.88015 1.19212 2.02556C1.04729 2.17096 1.04729 2.40662 1.19212 2.55203L5.83128 7.21159Z" fill="#6155CC"/>
<path d="M9.9313 6.40655C9.91336 5.6538 9.62167 4.94019 9.12143 4.39497L4.08438 0.141112C3.88626 -0.0263508 3.59347 -0.013667 3.41037 0.170157C3.21554 0.365929 3.21554 0.683024 3.41037 0.878612L7.25284 4.73633C7.48849 4.97291 7.48849 5.35637 7.25284 5.59295L5.54776 7.30472C5.3121 7.5413 4.93014 7.5413 4.69449 7.30472L0.851834 3.44718C0.65701 3.25159 0.34097 3.25159 0.146146 3.44718C-0.0369595 3.631 -0.0495938 3.92494 0.117215 4.12383L4.35446 9.18063C4.89755 9.68284 5.60837 9.97567 6.35818 9.99387L7.81497 9.99828C8.48788 10.0005 9.12948 10.285 9.5845 10.7828L21.1701 23.5523C21.7363 24.1672 22.7935 24.0904 23.3831 23.4983C23.9729 22.9062 24.0495 21.8448 23.437 21.2766L10.7174 9.64552C10.2215 9.18872 9.93808 8.54461 9.93588 7.86905L9.9313 6.40655Z" fill="#6155CC"/>
<path d="M19.4515 9.06068C20.3716 8.98274 21.2078 8.49267 21.7278 7.72668L22.8772 6.03366C23.8185 4.64708 24.1884 2.94818 23.909 1.29359C23.8634 1.023 23.7268 0.786419 23.5334 0.61436C23.3401 0.442301 23.0898 0.334581 22.8166 0.321346C21.1468 0.241382 19.5112 0.813625 18.2529 1.91822L16.7164 3.26657C16.0212 3.87686 15.6368 4.76896 15.6701 5.69543L15.7531 7.15535C15.7912 7.82999 15.5471 8.4901 15.0793 8.97594L3.07835 21.3528C2.50102 21.957 2.64091 23.012 3.26494 23.5673C3.88914 24.1228 4.94896 24.1357 5.47722 23.4879L16.2781 10.0429C16.7025 9.5184 17.326 9.19598 17.9976 9.15315L19.4515 9.06068Z" fill="#6155CC"/>
</svg>
