<svg width="32" height="32" viewBox="0 0 32 32" fill="none" xmlns="http://www.w3.org/2000/svg">
<rect opacity="0.2" width="32" height="32" rx="12" fill="#F77777"/>
<path d="M11.726 11.519L12.1457 11.0977L8.41488 7.35726C8.29901 7.24094 8.11122 7.24094 7.99535 7.35726C7.87948 7.47359 7.87948 7.66212 7.99535 7.77844L11.726 11.519Z" fill="#F77777"/>
<path d="M11.0651 12.1501L11.4848 11.7288L7.77328 8.00131C7.65741 7.88498 7.46962 7.88498 7.35375 8.00131C7.23788 8.11763 7.23788 8.30616 7.35375 8.42248L11.0651 12.1501Z" fill="#F77777"/>
<path d="M14.3451 11.5064C14.3307 10.9042 14.0974 10.3333 13.6972 9.89713L9.66753 6.49404C9.50903 6.36007 9.2748 6.37022 9.12832 6.51728C8.97246 6.6739 8.97246 6.92757 9.12832 7.08404L12.2023 10.1702C12.3908 10.3595 12.3908 10.6662 12.2023 10.8555L10.8382 12.2249C10.6497 12.4142 10.3441 12.4142 10.1556 12.2249L7.08149 9.1389C6.92563 8.98242 6.6728 8.98242 6.51694 9.1389C6.37046 9.28595 6.36035 9.5211 6.4938 9.68022L9.88359 13.7257C10.3181 14.1274 10.8867 14.3617 11.4866 14.3762L12.652 14.3798C13.1903 14.3815 13.7036 14.6092 14.0676 15.0074L23.3361 25.223C23.7891 25.7149 24.6349 25.6535 25.1065 25.1798C25.5784 24.7061 25.6396 23.857 25.1496 23.4024L14.9739 14.0976C14.5772 13.7321 14.3505 13.2168 14.3487 12.6764L14.3451 11.5064Z" fill="#F77777"/>
<path d="M21.9612 13.6297C22.6973 13.5673 23.3662 13.1753 23.7823 12.5625L24.7017 11.2081C25.4548 10.0988 25.7507 8.7397 25.5272 7.41602C25.4907 7.19955 25.3814 7.01029 25.2267 6.87264C25.0721 6.73499 24.8718 6.64882 24.6533 6.63823C23.3175 6.57426 22.0089 7.03205 21.0023 7.91573L19.7731 8.99441C19.2169 9.48264 18.9095 10.1963 18.9361 10.9375L19.0025 12.1054C19.0329 12.6451 18.8377 13.1732 18.4634 13.5619L8.86268 23.4634C8.40082 23.9468 8.51273 24.7907 9.01195 25.235C9.51131 25.6794 10.3592 25.6897 10.7818 25.1715L19.4224 14.4154C19.762 13.9959 20.2608 13.7379 20.7981 13.7037L21.9612 13.6297Z" fill="#F77777"/>
</svg>
