<svg width="32" height="32" viewBox="0 0 32 32" fill="none" xmlns="http://www.w3.org/2000/svg">
<rect opacity="0.2" width="32" height="32" rx="12" fill="#34C9BD"/>
<path d="M24 15.1997H8.00004C7.11762 15.1997 6.40002 15.9173 6.40002 16.7997C6.40002 17.6821 7.11762 18.3997 8.00004 18.3997H24C24.8824 18.3997 25.6 17.6821 25.6 16.7997C25.6 15.9173 24.8824 15.1997 24 15.1997Z" fill="#34C9BD"/>
<path d="M20.4 13.6001C19.2976 13.6001 18.4 14.4977 18.4 15.6001C18.4 15.8209 18.5792 16.0001 18.8 16.0001C19.0208 16.0001 19.2 15.8209 19.2 15.6001H21.6C21.6 15.8209 21.7793 16.0001 22.0001 16.0001C22.2209 16.0001 22.4001 15.8209 22.4001 15.6001C22.4 14.4977 21.5024 13.6001 20.4 13.6001Z" fill="#34C9BD"/>
<path d="M16.4976 15.5501L16.172 12.9517C16.0472 11.9525 15.1944 11.1997 14.1872 11.1997H13.6V12.3997C13.6 12.6205 13.4208 12.7997 13.2 12.7997C12.9792 12.7997 12.8 12.6205 12.8 12.3997V11.1997H12.2128C11.2064 11.1997 10.3528 11.9525 10.228 12.9517L9.90318 15.5501C9.87599 15.7693 10.0312 15.9693 10.2504 15.9965C10.4728 16.0221 10.6688 15.8685 10.6968 15.6493L10.7032 15.5997H12.8V13.9997C12.8 13.7789 12.9792 13.5997 13.2 13.5997C13.4208 13.5997 13.6 13.7789 13.6 13.9997V15.5997H15.6968L15.7032 15.6493C15.7288 15.8517 15.9008 15.9997 16.1 15.9997C16.1168 15.9997 16.1336 15.999 16.1504 15.9966C16.3696 15.9693 16.5248 15.7693 16.4976 15.5501Z" fill="#34C9BD"/>
<path d="M13.2 10.3999C14.3046 10.3999 15.2 9.50445 15.2 8.39989C15.2 7.29533 14.3046 6.3999 13.2 6.3999C12.0954 6.3999 11.2 7.29533 11.2 8.39989C11.2 9.50445 12.0954 10.3999 13.2 10.3999Z" fill="#34C9BD"/>
<path d="M23.6441 17.6025C23.4288 17.5793 23.2272 17.7361 23.2025 17.9561L23.1977 18.0001H8.80245L8.79765 17.9561C8.77365 17.7369 8.58004 17.5785 8.35605 17.6025C8.13687 17.6273 7.97847 17.8249 8.00247 18.0441L8.80245 25.2441C8.82484 25.4473 8.99607 25.6001 9.20007 25.6001H22.8001C23.0041 25.6001 23.1753 25.4473 23.1977 25.2441L23.9977 18.0441C24.0216 17.8249 23.8641 17.6273 23.6441 17.6025Z" fill="#34C9BD"/>
<path d="M20.4 12.7998C20.1792 12.7998 20 12.979 20 13.1998V13.9998C20 14.2206 20.1792 14.3998 20.4 14.3998C20.6208 14.3998 20.8 14.2206 20.8 13.9998V13.1998C20.8 12.979 20.6208 12.7998 20.4 12.7998Z" fill="#34C9BD"/>
</svg>
