<svg width="32" height="32" viewBox="0 0 32 32" fill="none" xmlns="http://www.w3.org/2000/svg">
<rect opacity="0.2" width="32" height="32" rx="12" fill="#FE9C5E"/>
<path d="M14.2802 10.1736C15.1368 10.1736 15.8313 9.47912 15.8313 8.62244C15.8313 7.76576 15.1368 7.07129 14.2802 7.07129C13.4235 7.07129 12.729 7.76576 12.729 8.62244C12.729 9.47912 13.4235 10.1736 14.2802 10.1736Z" fill="#FE9C5E"/>
<path d="M21.4551 9.61275C22.3423 9.61275 23.0615 8.89353 23.0615 8.00633C23.0615 7.11912 22.3423 6.3999 21.4551 6.3999C20.5679 6.3999 19.8486 7.11912 19.8486 8.00633C19.8486 8.89353 20.5679 9.61275 21.4551 9.61275Z" fill="#FE9C5E"/>
<path d="M25.1615 18.8544H24.8678V18.2101C25.1066 18.0834 25.2694 17.8324 25.2694 17.5432V11.9979C25.2694 11.9966 25.2693 11.9953 25.2693 11.9941C25.2644 11.0141 24.46 10.2168 23.4762 10.2168C22.9689 10.2168 20.4682 10.2168 19.4546 10.2168C18.4592 10.2168 17.6454 11.0141 17.6405 11.9941C17.6405 11.9954 17.6405 11.9967 17.6405 11.9979V13.3904C17.4834 12.9486 17.3388 12.5375 17.2254 12.2075C16.8866 11.2216 16.3185 10.7218 15.537 10.7218C14.8835 10.7218 13.421 10.7218 13.0069 10.7218C12.2254 10.7218 11.6573 11.2216 11.3185 12.2075C10.8795 13.485 9.9741 15.9745 9.68213 16.7754C10.0154 16.8676 10.2676 17.1569 10.3044 17.5095H10.7149C10.7986 17.5095 10.88 17.5194 10.9584 17.5374C10.9591 17.5355 10.9601 17.5337 10.9608 17.5318C10.9709 17.504 11.8272 15.1614 12.4119 13.5058L11.5686 17.9273C11.7121 18.111 11.798 18.3419 11.798 18.5926V19.4268H12.3302V24.7027C12.3302 25.1778 12.6996 25.5825 13.1745 25.5994C13.673 25.6171 14.0828 25.2183 14.0828 24.7237V19.4268H14.4611V24.7027C14.4611 25.1778 14.8305 25.5825 15.3054 25.5994C15.8039 25.6171 16.2136 25.2183 16.2136 24.7237V19.4268H16.7708C17.025 19.4268 17.2178 19.1949 17.1691 18.9435L16.1319 13.5057C16.3873 14.2288 17.0207 15.9764 17.6541 17.7179C17.9492 18.5295 19.1512 18.3177 19.1512 17.4541V12.0004C19.1528 11.8568 19.2975 11.7264 19.4557 11.7264V24.6696C19.4557 25.1775 19.8714 25.6056 20.3792 25.5961C20.8715 25.5869 21.2678 25.1849 21.2678 24.6904V17.4504H21.6588V24.67C21.6588 25.1778 22.0744 25.6057 22.5821 25.5961C23.0743 25.5867 23.4704 25.1848 23.4704 24.6904V24.0169C23.1995 23.8738 23.0144 23.5893 23.0144 23.2621V19.2577C23.0144 18.9306 23.196 18.646 23.4669 18.5029V11.7264C23.6193 11.7264 23.7582 11.8517 23.7597 12.0003V17.5432C23.7597 17.8324 23.9225 18.0834 24.1613 18.2101V18.8544H23.8676C23.6449 18.8544 23.4644 19.035 23.4644 19.2577V23.2621C23.4644 23.4848 23.6449 23.6654 23.8676 23.6654H25.1615C25.3842 23.6654 25.5648 23.4848 25.5648 23.2621V19.2577C25.5647 19.035 25.3842 18.8544 25.1615 18.8544Z" fill="#FE9C5E"/>
<path fill-rule="evenodd" clip-rule="evenodd" d="M10.7148 17.8826H9.89648V17.5219C9.89648 17.2783 9.69829 17.0801 9.45465 17.0801H8.2932C8.04956 17.0801 7.85138 17.2783 7.85138 17.5219V17.8826H7.03301C6.68336 17.8826 6.3999 18.1661 6.3999 18.5157V24.6009C6.3999 24.9505 6.68336 25.234 7.03301 25.234H7.11356V25.3734C7.11356 25.4986 7.21508 25.6001 7.34029 25.6001H7.90976C8.03498 25.6001 8.13649 25.4986 8.13649 25.3734V25.234H9.61136V25.3734C9.61136 25.4986 9.71288 25.6001 9.83809 25.6001H10.4076C10.5328 25.6001 10.6343 25.4986 10.6343 25.3734V25.234H10.7148C11.0645 25.234 11.348 24.9505 11.348 24.6009V18.5157C11.3479 18.1661 11.0645 17.8826 10.7148 17.8826ZM7.89889 24.3227C7.89889 24.447 7.79813 24.5477 7.67389 24.5477C7.54965 24.5477 7.44889 24.447 7.44889 24.3227V18.8751C7.44889 18.7508 7.54965 18.6501 7.67389 18.6501C7.79813 18.6501 7.89889 18.7508 7.89889 18.8751V24.3227ZM8.87389 24.5477C8.99813 24.5477 9.09889 24.447 9.09889 24.3227V18.8751C9.09889 18.7508 8.99813 18.6501 8.87389 18.6501C8.74965 18.6501 8.64889 18.7508 8.64889 18.8751V24.3227C8.64889 24.447 8.74965 24.5477 8.87389 24.5477ZM9.44648 17.8826H8.30138V17.5301H9.44648V17.8826ZM10.1114 24.5477C10.2356 24.5477 10.3364 24.447 10.3364 24.3227V18.8751C10.3364 18.7508 10.2356 18.6501 10.1114 18.6501C9.98715 18.6501 9.88639 18.7508 9.88639 18.8751V24.3227C9.88639 24.447 9.98715 24.5477 10.1114 24.5477Z" fill="#FE9C5E"/>
</svg>
