<svg width="16" height="16" viewBox="0 0 16 16" fill="none" xmlns="http://www.w3.org/2000/svg">
<g id="Budicon-Solid/Interface/hamburger-ui-a">
<path id="Shape" fill-rule="evenodd" clip-rule="evenodd" d="M14.08 11.8402C14.08 12.0169 13.9367 12.1602 13.76 12.1602H4.79996C4.62322 12.1602 4.47996 12.0169 4.47996 11.8402C4.47996 11.6634 4.62322 11.5202 4.79996 11.5202H13.76C13.9367 11.5202 14.08 11.6634 14.08 11.8402ZM13.76 7.68016H3.51996C3.34323 7.68016 3.19996 7.82343 3.19996 8.00016C3.19996 8.17689 3.34323 8.32016 3.51996 8.32016H13.76C13.9367 8.32016 14.08 8.17689 14.08 8.00016C14.08 7.82343 13.9367 7.68016 13.76 7.68016ZM13.76 4.48016H2.23996C2.06322 4.48016 1.91996 4.33689 1.91996 4.16016C1.91996 3.98343 2.06322 3.84016 2.23996 3.84016H13.76C13.9367 3.84016 14.08 3.98343 14.08 4.16016C14.08 4.33689 13.9367 4.48016 13.76 4.48016Z" fill="#232323"/>
</g>
</svg>
