<svg width="24" height="24" viewBox="0 0 24 24" fill="none" xmlns="http://www.w3.org/2000/svg">
<g id="hotel (1)">
<path id="Shape" fill-rule="evenodd" clip-rule="evenodd" d="M22.1016 20.8089C23.1954 20.5013 24 19.4955 24 18.3047C24 16.8702 22.833 15.7031 21.3984 15.7031C19.9639 15.7031 18.7969 16.8702 18.7969 18.3047C18.7969 19.4955 19.6014 20.5013 20.6953 20.8089V22.5938H17.7578V3.70312H13.8492V0H12.5843V1.32933H11.4157V0H10.1508V3.70312H6.24225V22.5938H3.30469V20.9027C4.39856 20.5951 5.20312 19.5893 5.20312 18.3984C5.20312 16.9639 4.03608 15.7969 2.60156 15.7969C1.16705 15.7969 0 16.9639 0 18.3984C0 19.5893 0.804562 20.5951 1.89844 20.9027V22.5938H0V24H24V22.5938H22.1016V20.8089ZM13.2969 9.17184V7.17188H14.7031V9.17189L13.2969 9.17184ZM14.7031 10.6718H13.2969V12.6719H14.7031V10.6718ZM13.2969 14.1719H14.7031V16.1719H13.2969V14.1719ZM12.5842 2.3692H11.4157V3.70312H12.5842V2.3692ZM9.29686 9.17184V7.17188H10.7031V9.17189L9.29686 9.17184ZM10.7031 10.6718H9.29686V12.6719H10.7031V10.6718ZM9.29686 14.1719H10.7031V16.1719H9.29686V14.1719ZM13.3515 22.5938H14.7577V18.7969H9.2422V22.5938H10.6485V20.2031H13.3515V22.5938Z" fill="#FE9C5E"/>
</g>
</svg>
