<svg width="21" height="22" viewBox="0 0 21 22" fill="none" xmlns="http://www.w3.org/2000/svg">
<path d="M21 10.9524C21 10.0714 20.9285 9.42856 20.7738 8.7619H10.7143V12.738H16.619C16.5 13.7262 15.8571 15.2143 14.4285 16.2142L14.4085 16.3473L17.5892 18.8113L17.8095 18.8333C19.8333 16.9643 21 14.2142 21 10.9524Z" fill="#4285F4"/>
<path d="M10.7143 21.4286C13.6071 21.4286 16.0356 20.4761 17.8095 18.8333L14.4285 16.2142C13.5238 16.8452 12.3095 17.2857 10.7143 17.2857C7.88097 17.2857 5.47623 15.4167 4.619 12.8333L4.49335 12.844L1.18608 15.4035L1.14283 15.5238C2.90472 19.0237 6.52377 21.4286 10.7143 21.4286Z" fill="#34A853"/>
<path d="M4.619 12.8333C4.39282 12.1667 4.26191 11.4523 4.26191 10.7143C4.26191 9.97614 4.39282 9.26189 4.6071 8.59523L4.60111 8.45325L1.25239 5.8526L1.14283 5.90472C0.416671 7.35712 0 8.9881 0 10.7143C0 12.4405 0.416671 14.0714 1.14283 15.5238L4.619 12.8333Z" fill="#FBBC05"/>
<path d="M10.7143 4.14283C12.7262 4.14283 14.0833 5.01187 14.8571 5.73811L17.8809 2.78571C16.0238 1.05953 13.6071 0 10.7143 0C6.52377 0 2.90472 2.40474 1.14283 5.90472L4.6071 8.59523C5.47623 6.0119 7.88097 4.14283 10.7143 4.14283Z" fill="#EB4335"/>
</svg>
