<svg width="32" height="32" viewBox="0 0 32 32" fill="none" xmlns="http://www.w3.org/2000/svg">
<rect opacity="0.2" width="32" height="32" rx="12" fill="#FE9C5E"/>
<path d="M16.0001 6.3999C12.4711 6.3999 9.6001 9.51923 9.6001 13.3534C9.6001 18.1117 15.3275 25.0971 15.5713 25.3922C15.8004 25.6694 16.2002 25.6689 16.4289 25.3922C16.6727 25.0971 22.4001 18.1117 22.4001 13.3534C22.4 9.51923 19.529 6.3999 16.0001 6.3999Z" fill="#FE9C5E"/>
<path d="M16.0002 16.8519C14.2247 16.8519 12.7803 15.2825 12.7803 13.3534C12.7803 11.4244 14.2248 9.85498 16.0002 9.85498C17.7757 9.85498 19.2202 11.4244 19.2202 13.3535C19.2202 15.2825 17.7757 16.8519 16.0002 16.8519Z" fill="white"/>
</svg>
