<svg width="16" height="47" viewBox="0 0 16 47" fill="none" xmlns="http://www.w3.org/2000/svg">
<g id="Group 3">
<g id="Group 2">
<path id="Oval" fill-rule="evenodd" clip-rule="evenodd" d="M8 2C8.55228 2 9 1.55228 9 1C9 0.447715 8.55228 0 8 0C7.44772 0 7 0.447715 7 1C7 1.55228 7.44772 2 8 2Z" fill="#6155CC"/>
<path id="Oval Copy" fill-rule="evenodd" clip-rule="evenodd" d="M8 6C8.55228 6 9 5.55228 9 5C9 4.44772 8.55228 4 8 4C7.44772 4 7 4.44772 7 5C7 5.55228 7.44772 6 8 6Z" fill="#6155CC"/>
<path id="Oval Copy 2" fill-rule="evenodd" clip-rule="evenodd" d="M8 10C8.55228 10 9 9.55228 9 9C9 8.44772 8.55228 8 8 8C7.44772 8 7 8.44772 7 9C7 9.55228 7.44772 10 8 10Z" fill="#6155CC"/>
<path id="Oval Copy 4" fill-rule="evenodd" clip-rule="evenodd" d="M8 14C8.55228 14 9 13.5523 9 13C9 12.4477 8.55228 12 8 12C7.44772 12 7 12.4477 7 13C7 13.5523 7.44772 14 8 14Z" fill="#6155CC"/>
<path id="Oval Copy 3" fill-rule="evenodd" clip-rule="evenodd" d="M8 18C8.55228 18 9 17.5523 9 17C9 16.4477 8.55228 16 8 16C7.44772 16 7 16.4477 7 17C7 17.5523 7.44772 18 8 18Z" fill="#6155CC"/>
</g>
<g id="Group 22 Copy">
<path id="Path" d="M7.97535 23C3.57772 23 0 26.8992 0 31.6918C0 37.6397 7.13716 46.3715 7.44103 46.7404C7.72645 47.0868 8.22477 47.0862 8.50968 46.7404C8.81355 46.3715 15.9507 37.6397 15.9507 31.6918C15.9506 26.8992 12.3729 23 7.97535 23Z" fill="#FE9C5E"/>
<path id="Path_2" d="M7.97533 36.065C5.76277 36.065 3.96277 34.1033 3.96277 31.6919C3.96277 29.2806 5.76281 27.3188 7.97533 27.3188C10.1878 27.3188 11.9878 29.2806 11.9878 31.692C11.9878 34.1033 10.1878 36.065 7.97533 36.065Z" fill="white"/>
</g>
</g>
</svg>
