<svg width="12" height="24" viewBox="0 0 12 24" fill="none" xmlns="http://www.w3.org/2000/svg">
<path d="M4.25806 1.28564H5.03225V4.71422H4.25806V1.28564Z" fill="#6155CC"/>
<path d="M8.12903 1.28564H8.90322V4.71422H8.12903V1.28564Z" fill="#6155CC"/>
<path d="M3.48389 0H9.67743V0.857143H3.48389V0Z" fill="#6155CC"/>
<path d="M8.51611 8.57153H8.90321V9.42868H8.51611V8.57153Z" fill="#6155CC"/>
<path d="M3.23871 17.9581L5.24961 16.6724L5.63652 17.4142L3.62562 18.7001L3.23871 17.9581Z" fill="#6155CC"/>
<path fill-rule="evenodd" clip-rule="evenodd" d="M10.8387 6.42847H2.32261C1.68129 6.42847 1.16132 7.00415 1.16132 7.71418V20.9999C1.16283 21.6386 1.58829 22.1787 2.15968 22.2672C2.43715 21.7442 2.9454 21.4247 3.49316 21.4285C4.04092 21.4322 4.54539 21.7589 4.817 22.2856H8.73144C8.99303 21.7784 9.47123 21.4548 9.9982 21.4289C10.5254 21.4027 11.0277 21.6777 11.3292 22.1571C11.736 21.9472 11.9972 21.4967 12 20.9999V7.71418C12 7.00415 11.4801 6.42847 10.8387 6.42847ZM6.35934 17.9426L3.67744 19.6568C3.49221 19.7751 3.25557 19.7048 3.14859 19.4999L2.3744 18.0154C2.2676 17.8103 2.33111 17.5483 2.51615 17.4299L5.19805 15.7156C5.38309 15.5973 5.61992 15.6674 5.72671 15.8725L6.50091 17.357C6.60789 17.5621 6.54438 17.8241 6.35934 17.9426ZM6.96777 13.7142C7.18154 13.7142 7.35486 13.5223 7.35486 13.2856V11.5713C7.35486 11.3346 7.18154 11.1428 6.96777 11.1428H3.87099C3.65722 11.1428 3.4839 11.3346 3.4839 11.5713V13.2856C3.4839 13.5223 3.65722 13.7142 3.87099 13.7142H6.96777ZM10.7885 16.9255C10.7197 17.0597 10.5911 17.1428 10.4516 17.1428H8.12906C7.98957 17.1428 7.86085 17.0597 7.79224 16.9251C7.72344 16.7908 7.72552 16.6259 7.79734 16.4934L8.95863 14.3506C9.03367 14.2296 9.15785 14.1574 9.29035 14.1574C9.42285 14.1574 9.54703 14.2296 9.62206 14.3506L10.7834 16.4934C10.8554 16.6259 10.8573 16.791 10.7885 16.9255ZM9.67745 8.57132H10.8387V7.71418H2.32261V8.57132H7.74196V9.85704C7.74196 10.0937 7.91529 10.2856 8.12906 10.2856H9.29035C9.50412 10.2856 9.67745 10.0937 9.67745 9.85704V8.57132Z" fill="#6155CC"/>
<path d="M8.81305 16.2857H9.76756L9.2903 15.4041L8.81305 16.2857Z" fill="#6155CC"/>
<path d="M4.25806 12H6.58064V12.8571H4.25806V12Z" fill="#6155CC"/>
<path d="M10.8387 23.1428C10.8387 23.6161 10.4921 23.9999 10.0645 23.9999C9.63699 23.9999 9.29034 23.6161 9.29034 23.1428C9.29034 22.6694 9.63699 22.2856 10.0645 22.2856C10.4921 22.2856 10.8387 22.6694 10.8387 23.1428Z" fill="#6155CC"/>
<path d="M4.25804 23.1428C4.25804 23.6161 3.91139 23.9999 3.48385 23.9999C3.0563 23.9999 2.70966 23.6161 2.70966 23.1428C2.70966 22.6694 3.0563 22.2856 3.48385 22.2856C3.91139 22.2856 4.25804 22.6694 4.25804 23.1428Z" fill="#6155CC"/>
<path d="M4.25806 5.14282H8.90322V5.99997H4.25806V5.14282Z" fill="#6155CC"/>
<path d="M0 8.57153H0.386719V10.2858H0V8.57153Z" fill="#6155CC"/>
<path d="M0 18H0.386719V19.7143H0V18Z" fill="#6155CC"/>
</svg>
