<svg width="32" height="32" viewBox="0 0 32 32" fill="none" xmlns="http://www.w3.org/2000/svg">
<rect opacity="0.2" width="32" height="32" rx="8" fill="#FE9C5E"/>
<path d="M30.5778 16.3556C30.5778 21.0265 26.7852 24.844 22.0445 24.844C17.3489 24.844 13.5112 21.0265 13.5112 16.3556C13.5112 11.6847 17.3038 7.86719 21.9994 7.86719C26.7852 7.86719 30.5778 11.6847 30.5778 16.3556Z" fill="#FFB600"/>
<path d="M22.0445 7.86719C26.7401 7.86719 30.5778 11.6847 30.5778 16.3556C30.5778 21.0265 26.7852 24.844 22.0445 24.844C17.3489 24.844 13.5112 21.0265 13.5112 16.3556" fill="#F7981D"/>
<path d="M22.0445 7.86719C26.7401 7.86719 30.5778 11.6847 30.5778 16.3556C30.5778 21.0265 26.7852 24.844 22.0445 24.844" fill="#FF8500"/>
<path d="M10.5764 7.86719C5.92595 7.9121 2.13336 11.6847 2.13336 16.3556C2.13336 21.0265 5.92595 24.844 10.6667 24.844C12.879 24.844 14.8656 23.9907 16.4007 22.6433C16.7168 22.3739 16.9877 22.0595 17.2586 21.7451H15.4977C15.272 21.4756 15.0462 21.1612 14.8656 20.8917H17.8907C18.0713 20.6223 18.2519 20.3079 18.3873 19.9935H14.369C14.2335 19.724 14.0981 19.4096 14.0078 19.0953H18.7034C18.9743 18.2419 19.1549 17.3437 19.1549 16.4005C19.1549 15.7717 19.0646 15.1879 18.9743 14.604H13.7369C13.782 14.2896 13.8723 14.0202 13.9626 13.7058H18.6582C18.5679 13.3914 18.4325 13.077 18.297 12.8075H14.3238C14.4593 12.4932 14.6399 12.2237 14.8205 11.9093H17.8455C17.6649 11.5949 17.4392 11.2805 17.1683 11.011H15.4977C15.7686 10.6967 16.0395 10.4272 16.3556 10.1577C14.8656 8.76543 12.8339 7.95701 10.6215 7.95701C10.6215 7.86719 10.6215 7.86719 10.5764 7.86719Z" fill="#FF5050"/>
<path d="M2.13336 16.3556C2.13336 21.0265 5.92595 24.844 10.6667 24.844C12.879 24.844 14.8656 23.9907 16.4007 22.6433C16.7168 22.3739 16.9877 22.0595 17.2586 21.7451H15.4977C15.272 21.4756 15.0462 21.1612 14.8656 20.8918H17.8907C18.0713 20.6223 18.2519 20.3079 18.3873 19.9935H14.369C14.2335 19.724 14.0981 19.4097 14.0078 19.0953H18.7034C18.9743 18.2419 19.1549 17.3437 19.1549 16.4005C19.1549 15.7718 19.0646 15.1879 18.9743 14.604H13.7369C13.782 14.2897 13.8723 14.0202 13.9626 13.7058H18.6582C18.5679 13.3914 18.4325 13.077 18.297 12.8076H14.3238C14.4593 12.4932 14.6399 12.2237 14.8205 11.9093H17.8455C17.6649 11.5949 17.4392 11.2805 17.1683 11.0111H15.4977C15.7686 10.6967 16.0395 10.4272 16.3556 10.1577C14.8656 8.76545 12.8339 7.95703 10.6215 7.95703H10.5764" fill="#E52836"/>
<path d="M10.6667 24.844C12.8791 24.844 14.8657 23.9907 16.4008 22.6433C16.7168 22.3739 16.9877 22.0595 17.2586 21.7451H15.4978C15.272 21.4756 15.0463 21.1612 14.8657 20.8918H17.8907C18.0713 20.6223 18.2519 20.3079 18.3874 19.9935H14.369C14.2336 19.724 14.0981 19.4097 14.0078 19.0953H18.7034C18.9743 18.2419 19.1549 17.3437 19.1549 16.4005C19.1549 15.7718 19.0646 15.1879 18.9743 14.604H13.7369C13.7821 14.2897 13.8724 14.0202 13.9627 13.7058H18.6582C18.568 13.3914 18.4325 13.077 18.2971 12.8076H14.3239C14.4593 12.4932 14.6399 12.2237 14.8205 11.9093H17.8456C17.665 11.5949 17.4392 11.2805 17.1683 11.0111H15.4978C15.7687 10.6967 16.0396 10.4272 16.3556 10.1577C14.8657 8.76545 12.8339 7.95703 10.6216 7.95703H10.5764" fill="#CB2026"/>
<path d="M13.6917 18.5114L13.8272 17.7479C13.782 17.7479 13.6917 17.7928 13.6014 17.7928C13.2854 17.7928 13.2402 17.6131 13.2854 17.5233L13.5563 15.9514H14.0529L14.1884 15.098H13.7369L13.8272 14.5591H12.9242C12.9242 14.5591 12.3824 17.5233 12.3824 17.8826C12.3824 18.4215 12.6984 18.6461 13.1048 18.6461C13.3757 18.6461 13.6014 18.5563 13.6917 18.5114Z" fill="white"/>
<path fill-rule="evenodd" clip-rule="evenodd" d="M15.588 18.646C14.8656 18.646 14.0078 18.3316 14.0078 17.0741C14.0078 15.9513 14.685 14.9632 15.6331 15.053C16.6264 15.053 16.9425 15.7716 16.9425 16.3555C16.9425 16.5801 16.807 17.1639 16.807 17.1639H14.9559C14.9559 17.1639 14.7753 17.8825 15.7686 17.8825C16.2201 17.8825 16.7167 17.658 16.7167 17.658L16.5361 18.5113C16.5361 18.5113 16.2652 18.646 15.588 18.646ZM15.9957 16.3802C16.005 16.2668 16.0454 15.7716 15.588 15.7716C15.0913 15.7716 15.001 16.3555 15.001 16.4004H15.9943C15.9943 16.3969 15.9949 16.3899 15.9957 16.3802Z" fill="white"/>
<path d="M21.3221 18.5113L21.5027 17.5232C21.5027 17.5232 21.0512 17.7478 20.7351 17.7478C20.103 17.7478 19.8321 17.2537 19.8321 16.7148C19.8321 15.6369 20.3739 15.053 21.006 15.053C21.4575 15.053 21.8187 15.3225 21.8187 15.3225L21.9541 14.3793C21.9541 14.3793 21.4124 14.1548 20.9157 14.1548C19.8773 14.1548 18.8388 15.053 18.8388 16.7597C18.8388 17.8825 19.3806 18.646 20.4642 18.646C20.8254 18.646 21.3221 18.5113 21.3221 18.5113Z" fill="white"/>
<path fill-rule="evenodd" clip-rule="evenodd" d="M7.64162 15.1428C7.64162 15.1428 8.09312 14.9631 8.72522 14.9631C9.04127 14.9631 9.94427 15.008 9.94427 16.0859L9.58307 18.5561H8.77037L8.81552 18.1968C8.806 18.1968 8.78643 18.2148 8.75556 18.2432C8.64004 18.3493 8.36616 18.601 7.86737 18.601C7.55132 18.601 7.00952 18.4214 7.00952 17.613C7.00952 16.58 7.86737 16.2656 8.63492 16.2656H9.04127C9.04127 16.2656 9.08642 16.2207 9.08642 16.041C9.08642 15.7716 8.81552 15.7266 8.49947 15.7266C7.91252 15.7266 7.50617 15.9063 7.50617 15.9063L7.64162 15.1428ZM8.27372 17.8375C8.81552 17.8375 8.90582 17.1189 8.90582 16.9842C8.90582 16.9842 8.86067 16.9842 8.72522 16.9393C8.04797 16.9393 7.91252 17.2537 7.91252 17.4782C7.91252 17.613 8.00282 17.8375 8.27372 17.8375Z" fill="white"/>
<path d="M10.8021 18.601C11.0279 18.601 12.1566 18.6459 12.1566 17.4333C12.1566 16.3105 11.073 16.5351 11.073 16.0859C11.073 15.8614 11.2536 15.7715 11.5697 15.7715C11.7051 15.7715 12.2018 15.8165 12.2018 15.8165L12.3372 15.008C12.3372 15.008 12.0212 14.9182 11.4794 14.9182C10.8021 14.9182 10.1249 15.1877 10.1249 16.0859C10.1249 17.1189 11.2536 17.0291 11.2536 17.4333C11.2536 17.7028 10.9376 17.7477 10.7118 17.7477C10.3055 17.7477 9.89912 17.6129 9.89912 17.6129L9.76367 18.4214C9.80882 18.5112 10.0346 18.601 10.8021 18.601Z" fill="white"/>
<path fill-rule="evenodd" clip-rule="evenodd" d="M28.6364 15.4573L28.817 14.2446L29.7651 14.2895L29.0879 18.6011H28.1849L28.23 18.2867C28.23 18.2867 27.914 18.646 27.3722 18.646C26.6046 18.646 26.2434 17.8825 26.2434 17.1639C26.2434 15.9962 26.9658 15.0081 27.7785 15.0081C28.2752 15.0081 28.6364 15.4573 28.6364 15.4573ZM27.6882 17.7478C28.1849 17.7478 28.4106 17.119 28.4106 16.625C28.4106 16.086 28.23 15.8615 27.914 15.8615C27.5076 15.8615 27.1916 16.3106 27.1916 17.0292C27.1916 17.4783 27.3722 17.7478 27.6882 17.7478Z" fill="white"/>
<path d="M3.80389 18.5562L4.34569 15.3225L4.43599 18.5562H5.06809L6.24199 15.3225L5.74534 18.5562H6.69349L7.41589 14.2446H5.92594L5.02294 16.8945L4.97779 14.2446H3.66844L2.94604 18.5562H3.80389Z" fill="white"/>
<path d="M17.8004 18.5561C18.0713 17.074 18.1164 15.8614 18.7485 16.086C18.8388 15.5021 18.9743 15.2775 19.0646 15.053C19.0646 15.053 19.0194 15.053 18.884 15.053C18.4776 15.053 18.1616 15.5919 18.1616 15.5919L18.2519 15.0979H17.394L16.8071 18.601H17.8004V18.5561Z" fill="white"/>
<path fill-rule="evenodd" clip-rule="evenodd" d="M22.3153 15.1428C22.3153 15.1428 22.7668 14.9631 23.3989 14.9631C23.715 14.9631 24.6631 15.008 24.618 16.0859L24.2568 18.5561H23.4441L23.4892 18.1968C23.4797 18.1968 23.4601 18.2148 23.4293 18.2432C23.3137 18.3493 23.0399 18.601 22.5411 18.601C22.225 18.601 21.6832 18.4214 21.6832 17.613C21.6832 16.58 22.5411 16.2656 23.3086 16.2656H23.715C23.715 16.2656 23.7601 16.2207 23.7601 16.041C23.7601 15.7716 23.4892 15.7266 23.1732 15.7266C22.5862 15.7266 22.1799 15.9063 22.1799 15.9063L22.3153 15.1428ZM22.9926 17.8375C23.5344 17.8375 23.6247 17.1189 23.6247 16.9842C23.6136 16.9842 23.6053 16.9842 23.5969 16.9835C23.5714 16.9815 23.5463 16.9732 23.4441 16.9393C22.7668 16.9393 22.6314 17.2537 22.6314 17.4782C22.6314 17.613 22.7217 17.8375 22.9926 17.8375Z" fill="white"/>
<path d="M25.3856 18.5561C25.6565 17.074 25.7016 15.8614 26.3337 16.086C26.424 15.5021 26.5595 15.2775 26.6498 15.053C26.6498 15.053 26.6046 15.053 26.4692 15.053C26.0628 15.053 25.7468 15.5919 25.7468 15.5919L25.8371 15.0979H24.9792L24.3923 18.601H25.3856V18.5561Z" fill="white"/>
<path d="M12.2921 17.8826C12.2921 18.4215 12.6081 18.6461 13.0145 18.6461C13.3305 18.6461 13.6014 18.5563 13.6917 18.5114L13.8272 17.7479C13.782 17.7479 13.6917 17.7928 13.6014 17.7928C13.2854 17.7928 13.2402 17.6131 13.2854 17.5233L13.5563 15.9514H14.0529L14.1883 15.098H13.7369L13.8272 14.5591" fill="#DCE5E5"/>
<path fill-rule="evenodd" clip-rule="evenodd" d="M15.588 18.646C14.8656 18.646 14.4593 18.3316 14.4593 17.0741C14.4593 15.9513 14.685 14.9632 15.6332 15.053C16.6265 15.053 16.9425 15.7716 16.9425 16.3555C16.9425 16.5801 16.8071 17.1639 16.8071 17.1639H14.9559C14.9559 17.1639 14.7753 17.8825 15.7686 17.8825C16.2201 17.8825 16.7168 17.658 16.7168 17.658L16.5362 18.5113C16.5362 18.5113 16.2653 18.646 15.588 18.646ZM16.175 16.4004C16.175 16.3555 16.0847 15.7716 15.588 15.7716C15.0914 15.7716 15.0011 16.3555 15.0011 16.4004H16.175Z" fill="#DCE5E5"/>
<path d="M21.322 18.5113L21.5026 17.5232C21.5026 17.5232 21.0511 17.7478 20.7351 17.7478C20.103 17.7478 19.8321 17.2537 19.8321 16.7148C19.8321 15.6369 20.3739 15.053 21.006 15.053C21.4575 15.053 21.8187 15.3225 21.8187 15.3225L21.9541 14.3793C21.9541 14.3793 21.4123 14.1548 20.9157 14.1548C19.8772 14.1548 19.2903 15.053 19.2903 16.7597C19.2903 17.8825 19.3806 18.646 20.4642 18.646C20.8254 18.646 21.322 18.5113 21.322 18.5113Z" fill="#DCE5E5"/>
<path fill-rule="evenodd" clip-rule="evenodd" d="M8.49947 15.7716C7.91252 15.7716 7.50617 15.9512 7.50617 15.9512L8.68007 15.053C9.04127 15.053 9.94427 15.0979 9.94427 16.1309L9.58307 18.601H8.77037L8.81552 18.2418C8.806 18.2418 8.78643 18.2597 8.75556 18.2881C8.64004 18.3943 8.36616 18.646 7.86737 18.646C7.55132 18.646 7.00952 18.4663 7.00952 17.6579C7.00952 16.6249 7.86737 16.3105 8.63492 16.3105H9.04127C9.04127 16.3105 9.08642 16.2656 9.08642 16.086C9.08642 15.8165 8.81552 15.7716 8.49947 15.7716ZM8.27372 17.8375C8.81552 17.8375 9.35732 17.1189 9.35732 16.9842C9.35732 16.9842 8.86067 16.9842 8.72522 16.9393C8.04797 16.9393 7.91252 17.2537 7.91252 17.4782C7.91252 17.613 8.00282 17.8375 8.27372 17.8375Z" fill="#DCE5E5"/>
<path d="M9.80884 18.5112C9.80884 18.5112 10.0797 18.601 10.8473 18.601C11.073 18.601 12.2018 18.6459 12.2018 17.4333C12.2018 16.3105 11.1182 16.5351 11.1182 16.0859C11.1182 15.8614 11.2988 15.7715 11.6148 15.7715C11.7503 15.7715 12.2469 15.8165 12.2469 15.8165L12.3824 15.008C12.3824 15.008 12.0663 14.9182 11.5245 14.9182C10.8473 14.9182 10.6215 15.1877 10.6215 16.0859C10.6215 17.1189 11.2988 17.0291 11.2988 17.4333C11.2988 17.7028 10.9827 17.7477 10.757 17.7477" fill="#DCE5E5"/>
<path fill-rule="evenodd" clip-rule="evenodd" d="M27.7785 15.0081C28.2751 15.0081 28.6363 15.4573 28.6363 15.4573L29.7651 14.2896L29.0878 18.6011H28.1848L28.23 18.2867C28.23 18.2867 27.9139 18.646 27.3721 18.646C26.678 18.646 26.6854 18.0216 26.6932 17.3707C26.694 17.3018 26.6949 17.2327 26.6949 17.1639C26.6949 15.9962 26.9658 15.0081 27.7785 15.0081ZM27.6882 17.7478C28.1848 17.7478 28.5912 17.119 28.5912 16.625C28.5912 16.086 28.23 15.8615 27.9139 15.8615C27.5076 15.8615 27.1915 16.3106 27.1915 17.0292C27.1915 17.4783 27.3721 17.7478 27.6882 17.7478Z" fill="#DCE5E5"/>
<path d="M3.80389 18.5562L4.34569 15.3225L4.43599 18.5562H5.06809L6.24199 15.3225L5.74534 18.5562H6.69349L7.41589 14.2446H6.28714L5.02294 16.8945L4.97779 14.2446H4.48114L2.94604 18.5562H3.80389Z" fill="#DCE5E5"/>
<path d="M16.8522 18.5561H17.8004C18.0713 17.074 18.1164 15.8614 18.7485 16.086C18.8388 15.5021 18.9743 15.2775 19.0646 15.053C19.0646 15.053 19.0194 15.053 18.884 15.053C18.4776 15.053 18.1616 15.5919 18.1616 15.5919L18.2519 15.0979" fill="#DCE5E5"/>
<path fill-rule="evenodd" clip-rule="evenodd" d="M23.1732 15.7716C22.5862 15.7716 22.1799 15.9512 22.1799 15.9512L23.3538 15.053C23.715 15.053 24.618 15.0979 24.618 16.1309L24.2568 18.601H23.4441L23.4892 18.2418C23.4797 18.2418 23.4601 18.2597 23.4293 18.2881C23.3137 18.3943 23.0399 18.646 22.5411 18.646C22.225 18.646 21.6832 18.4663 21.6832 17.6579C21.6832 16.6249 22.5411 16.3105 23.3086 16.3105H23.715C23.715 16.3105 23.7601 16.2656 23.7601 16.086C23.7601 15.8165 23.4892 15.7716 23.1732 15.7716ZM22.9474 17.8375C23.4892 17.8375 24.031 17.1189 24.031 16.9842C24.031 16.9842 23.5795 16.9842 23.3989 16.9393C22.7217 16.9393 22.5862 17.2537 22.5862 17.4782C22.5862 17.613 22.6765 17.8375 22.9474 17.8375Z" fill="#DCE5E5"/>
<path d="M24.4374 18.5561H25.3855C25.6564 17.074 25.7016 15.8614 26.3337 16.086C26.424 15.5021 26.5594 15.2775 26.6497 15.053C26.6497 15.053 26.6046 15.053 26.4691 15.053C26.0628 15.053 25.7467 15.5919 25.7467 15.5919L25.837 15.0979" fill="#DCE5E5"/>
</svg>
