<svg width="32" height="32" viewBox="0 0 32 32" fill="none" xmlns="http://www.w3.org/2000/svg">
<rect opacity="0.2" width="32" height="32" rx="12" fill="#FE9C5E"/>
<path d="M16.3555 15.5541C16.1544 15.5541 15.9596 15.5312 15.7732 15.4891C15.5868 15.447 15.3899 15.4897 15.2438 15.6012L14.6745 16.0358C14.4085 16.2389 14.2554 16.5353 14.2554 16.8473V18.2261H18.4557V16.8473C18.4557 16.5353 18.3026 16.2388 18.0366 16.0358L17.4672 15.6012C17.3212 15.4897 17.1242 15.447 16.9378 15.4891C16.7515 15.5312 16.5566 15.5541 16.3555 15.5541Z" fill="#FE9C5E"/>
<path d="M16.3556 14.4853C17.0183 14.4853 17.5556 14.0068 17.5556 13.4165C17.5556 12.8262 17.0183 12.3477 16.3556 12.3477C15.6928 12.3477 15.1555 12.8262 15.1555 13.4165C15.1555 14.0068 15.6928 14.4853 16.3556 14.4853Z" fill="#FE9C5E"/>
<path d="M11.5552 18.2261H21.1558V24.639H11.5552V18.2261Z" fill="#FE9C5E"/>
<path d="M17.2556 10.7443C16.7585 10.7443 16.3556 10.3854 16.3556 9.9427V8.07227H18.1557V9.9427C18.1557 10.3854 17.7527 10.7443 17.2556 10.7443Z" fill="#FE9C5E"/>
<path d="M15.4555 10.7443C14.9584 10.7443 14.5555 10.3854 14.5555 9.9427V8.07227H16.3556V9.9427C16.3556 10.3854 15.9526 10.7443 15.4555 10.7443Z" fill="#FE9C5E"/>
<path d="M21.4559 18.7605H11.2552C11.0896 18.7605 10.9552 18.6408 10.9552 18.4933V17.9589C10.9552 17.8113 11.0896 17.6917 11.2552 17.6917H21.4559C21.6216 17.6917 21.7559 17.8113 21.7559 17.9589V18.4933C21.7559 18.6408 21.6216 18.7605 21.4559 18.7605Z" fill="#FE9C5E"/>
<path d="M19.3557 21.4325H13.3554C13.024 21.4325 12.7553 21.1933 12.7553 20.8981V20.3637C12.7553 20.0686 13.024 19.8293 13.3554 19.8293H19.3558C19.6871 19.8293 19.9558 20.0686 19.9558 20.3637V20.8981C19.9558 21.1933 19.6871 21.4325 19.3557 21.4325Z" fill="#FE9C5E"/>
<path d="M13.6554 10.7443C13.1583 10.7443 12.7553 10.3854 12.7553 9.9427V8.07227H14.5555V9.9427C14.5554 10.3854 14.1524 10.7443 13.6554 10.7443Z" fill="#FE9C5E"/>
<path d="M11.8553 10.7443C11.3582 10.7443 10.9552 10.3854 10.9552 9.9427V8.07227H12.7554V9.9427C12.7553 10.3854 12.3524 10.7443 11.8553 10.7443Z" fill="#FE9C5E"/>
<path d="M20.8558 10.7443C20.3587 10.7443 19.9558 10.3854 19.9558 9.9427V8.07227H21.7559V9.9427C21.7559 10.3854 21.3529 10.7443 20.8558 10.7443Z" fill="#FE9C5E"/>
<path d="M19.0557 10.7443C18.5586 10.7443 18.1557 10.3854 18.1557 9.9427V8.07227H19.9558V9.9427C19.9558 10.3854 19.5528 10.7443 19.0557 10.7443Z" fill="#FE9C5E"/>
<path fill-rule="evenodd" clip-rule="evenodd" d="M20.8558 10.9943C21.5069 10.9943 22.0366 10.5226 22.0366 9.9427V8.07227C22.0366 7.9342 21.9109 7.82227 21.7559 7.82227H10.9552C10.8001 7.82227 10.6745 7.9342 10.6745 8.07227V9.9427C10.6745 10.5226 11.2042 10.9943 11.8553 10.9943L11.8666 10.9941L11.8746 10.9939V17.4416H11.2639C10.9389 17.4416 10.6745 17.6771 10.6745 17.9666V18.4855C10.6745 18.775 10.9389 19.0105 11.2639 19.0105H11.2745V24.3889H10.9552C10.8002 24.3889 10.6745 24.5009 10.6745 24.6389C10.6745 24.777 10.8002 24.8889 10.9552 24.8889H21.7559C21.9109 24.8889 22.0366 24.777 22.0366 24.6389C22.0366 24.5009 21.9109 24.3889 21.7559 24.3889H21.4366V19.0104H21.4472C21.7722 19.0104 22.0366 18.7749 22.0366 18.4855V17.9666C22.0366 17.6771 21.7722 17.4416 21.4472 17.4416H20.8365V10.9939L20.8458 10.9941L20.8558 10.9943ZM21.4752 9.9427C21.4752 10.2469 21.1973 10.4943 20.8558 10.4943C20.5143 10.4943 20.2365 10.2469 20.2365 9.9427C20.2365 9.80463 20.1108 9.6927 19.9558 9.6927C19.8008 9.6927 19.6751 9.80463 19.6751 9.9427C19.6751 10.2469 19.3973 10.4943 19.0557 10.4943C18.7142 10.4943 18.4364 10.2469 18.4364 9.9427V8.32227H19.6751V8.87397C19.6751 9.01203 19.8008 9.12397 19.9558 9.12397C20.1108 9.12397 20.2365 9.01203 20.2365 8.87397V8.32227H21.4752V9.9427H21.4752ZM17.2556 10.4943C17.5971 10.4943 17.875 10.2469 17.875 9.9427V8.32227H16.6362V9.9427C16.6362 10.2469 16.9141 10.4943 17.2556 10.4943ZM16.0748 9.9427C16.0748 10.2469 15.797 10.4943 15.4555 10.4943C15.114 10.4943 14.8362 10.2469 14.8362 9.9427V8.32227H16.0748V9.9427ZM13.6554 10.4943C13.9969 10.4943 14.2747 10.2469 14.2747 9.9427H14.2747V8.32227H13.036V9.9427C13.036 10.2469 13.3139 10.4943 13.6554 10.4943ZM11.8553 10.4943C11.5137 10.4943 11.2359 10.2469 11.2359 9.9427V8.32227H12.4746V9.9427C12.4746 10.2469 12.1968 10.4943 11.8553 10.4943ZM21.4752 18.4855V17.9666C21.4752 17.9528 21.4626 17.9416 21.4472 17.9416H11.2639C11.2484 17.9416 11.2359 17.9528 11.2359 17.9666V18.4855C11.2359 18.4992 11.2484 18.5104 11.2639 18.5104H19.3559C19.5109 18.5104 19.6366 18.6224 19.6366 18.7604C19.6366 18.8985 19.5109 19.0104 19.3559 19.0104H11.8359V24.3889H20.8752V19.0104H20.5557C20.4007 19.0104 20.275 18.8985 20.275 18.7604C20.275 18.6224 20.4007 18.5104 20.5557 18.5104H21.4472C21.4626 18.5104 21.4752 18.4992 21.4752 18.4855ZM18.1749 17.4416H14.5361V16.8472C14.5361 16.6079 14.6531 16.3813 14.8571 16.2255L15.4265 15.7909C15.5039 15.7318 15.6077 15.7095 15.7042 15.7313C16.1313 15.8278 16.5798 15.8278 17.0069 15.7313C17.1032 15.7095 17.2071 15.7317 17.2845 15.7908L17.8539 16.2255C18.0579 16.3813 18.1749 16.6079 18.1749 16.8472V17.4416ZM18.7364 17.4416H20.275V10.8578C20.1536 10.7964 20.0455 10.7165 19.9557 10.6223C19.739 10.8496 19.416 10.9943 19.0557 10.9943C18.6953 10.9943 18.3724 10.8496 18.1556 10.6223C17.9389 10.8496 17.6159 10.9943 17.2556 10.9943C16.8952 10.9943 16.5723 10.8496 16.3555 10.6223C16.1388 10.8496 15.8158 10.9943 15.4555 10.9943C15.0951 10.9943 14.7722 10.8496 14.5554 10.6223C14.3387 10.8496 14.0157 10.9943 13.6554 10.9943C13.295 10.9943 12.9721 10.8496 12.7553 10.6223C12.6655 10.7165 12.5575 10.7964 12.436 10.8578V17.4417H13.9747V16.8472C13.9747 16.4617 14.1632 16.0968 14.4918 15.8459L15.0612 15.4112C15.2771 15.2464 15.569 15.1849 15.8423 15.2466C16.1792 15.3227 16.5319 15.3227 16.8688 15.2466C17.1421 15.1849 17.434 15.2464 17.6499 15.4112L18.2193 15.8459C18.5479 16.0968 18.7364 16.4617 18.7364 16.8472V17.4416Z" fill="#FE9C5E"/>
<path d="M19.3557 19.5793H13.3554C12.8697 19.5793 12.4746 19.9312 12.4746 20.3637V20.8982C12.4746 21.3307 12.8698 21.6826 13.3554 21.6826H13.6555C13.8105 21.6826 13.9362 21.5706 13.9362 21.4326C13.9362 21.2945 13.8105 21.1826 13.6555 21.1826H13.3554C13.1793 21.1826 13.036 21.055 13.036 20.8982V20.3637C13.036 20.2069 13.1793 20.0793 13.3554 20.0793H19.3557C19.5318 20.0793 19.6751 20.2069 19.6751 20.3637V20.8982C19.6751 21.055 19.5318 21.1826 19.3557 21.1826H14.8554C14.7004 21.1826 14.5747 21.2945 14.5747 21.4326C14.5747 21.5706 14.7004 21.6826 14.8554 21.6826H19.3557C19.8414 21.6826 20.2365 21.3307 20.2365 20.8982V20.3637C20.2365 19.9312 19.8414 19.5793 19.3557 19.5793Z" fill="#FE9C5E"/>
</svg>
