<svg width="32" height="32" viewBox="0 0 32 32" fill="none" xmlns="http://www.w3.org/2000/svg">
<rect opacity="0.2" width="32" height="32" rx="12" fill="#2D3143"/>
<path fill-rule="evenodd" clip-rule="evenodd" d="M10 18.3999C11.1046 18.3999 12 17.5045 12 16.3999C12 15.2953 11.1046 14.3999 10 14.3999C8.89543 14.3999 8 15.2953 8 16.3999C8 17.5045 8.89543 18.3999 10 18.3999Z" fill="#2D3143"/>
<path fill-rule="evenodd" clip-rule="evenodd" d="M16.4 18.3999C17.5046 18.3999 18.4 17.5045 18.4 16.3999C18.4 15.2953 17.5046 14.3999 16.4 14.3999C15.2955 14.3999 14.4 15.2953 14.4 16.3999C14.4 17.5045 15.2955 18.3999 16.4 18.3999Z" fill="#2D3143"/>
<path fill-rule="evenodd" clip-rule="evenodd" d="M22.8 18.3999C23.9046 18.3999 24.8 17.5045 24.8 16.3999C24.8 15.2953 23.9046 14.3999 22.8 14.3999C21.6954 14.3999 20.8 15.2953 20.8 16.3999C20.8 17.5045 21.6954 18.3999 22.8 18.3999Z" fill="#2D3143"/>
</svg>
