<svg width="32" height="32" viewBox="0 0 32 32" fill="none" xmlns="http://www.w3.org/2000/svg">
<rect opacity="0.2" width="32" height="32" rx="12" fill="#FE9C5E"/>
<path fill-rule="evenodd" clip-rule="evenodd" d="M20.9607 15.9998C20.9607 18.7351 18.7353 20.9604 16 20.9604C13.2646 20.9604 11.0393 18.7351 11.0393 15.9998C11.0393 13.2644 13.2646 11.0391 16 11.0391C18.7353 11.0391 20.9607 13.2644 20.9607 15.9998ZM20.4942 15.9998C20.4942 13.5216 18.4781 11.5056 16 11.5056C13.5219 11.5056 11.5058 13.5217 11.5058 15.9998C11.5058 18.4778 13.5219 20.4939 16 20.4939C18.4781 20.4939 20.4942 18.4779 20.4942 15.9998Z" fill="#FE9C5E"/>
<path fill-rule="evenodd" clip-rule="evenodd" d="M14.4916 17.2596C14.4916 17.1308 14.3871 17.0263 14.2583 17.0263C14.1295 17.0263 14.025 17.1307 14.025 17.2596C14.025 17.8912 14.7732 18.3954 15.7667 18.4642V18.7369C15.7667 18.8657 15.8711 18.9702 16 18.9702C16.1288 18.9702 16.2333 18.8658 16.2333 18.7369V18.4642C17.2268 18.3954 17.975 17.8912 17.975 17.2596C17.975 16.4135 17.1704 16.0833 16.2333 15.8219V14.0033C16.9954 14.0646 17.5084 14.4191 17.5084 14.7404C17.5084 14.8692 17.6128 14.9736 17.7417 14.9736C17.8705 14.9736 17.975 14.8692 17.975 14.7404C17.975 14.1088 17.2268 13.6046 16.2333 13.5357V13.2631C16.2333 13.1342 16.1288 13.0298 16 13.0298C15.8711 13.0298 15.7667 13.1342 15.7667 13.2631V13.5357C14.7732 13.6046 14.025 14.1088 14.025 14.7404C14.025 15.5865 14.8295 15.9166 15.7667 16.1781V17.9967C15.0046 17.9354 14.4916 17.5808 14.4916 17.2596ZM17.5084 17.2596C17.5084 17.5808 16.9954 17.9354 16.2333 17.9967V16.3078C17.1793 16.5873 17.5084 16.8412 17.5084 17.2596ZM15.7667 14.0033C15.0046 14.0646 14.4916 14.4191 14.4916 14.7404C14.4916 15.1588 14.8207 15.4126 15.7667 15.6922V14.0033Z" fill="#FE9C5E"/>
<path d="M21.0912 10.9086C19.7313 9.54872 17.9232 8.7998 16 8.7998C13.9296 8.7998 11.9964 9.67098 10.6293 11.2045L10.7571 10.3101C10.7753 10.1826 10.6866 10.0644 10.5591 10.0462C10.4316 10.0282 10.3135 10.1166 10.2952 10.2442L10.0464 11.9859C10.035 12.0659 10.0658 12.1461 10.1279 12.198C10.1704 12.2335 10.2235 12.2521 10.2774 12.2521C10.3021 12.2521 10.327 12.2482 10.3511 12.2401L11.844 11.7425C11.9662 11.7018 12.0323 11.5697 11.9915 11.4475C11.9508 11.3252 11.8187 11.2591 11.6965 11.2999L10.9464 11.55C12.2267 10.0941 14.0482 9.26631 16 9.26631C17.7986 9.26631 19.4895 9.96671 20.7613 11.2385C22.0331 12.5103 22.7335 14.2012 22.7335 15.9998C22.7335 17.7984 22.0331 19.4893 20.7613 20.7611C19.4895 22.0329 17.7986 22.7333 16 22.7333C15.8712 22.7333 15.7668 22.8377 15.7668 22.9666C15.7668 23.0954 15.8712 23.1998 16 23.1998C17.9232 23.1998 19.7313 22.4509 21.0912 21.091C22.4511 19.731 23.2 17.923 23.2 15.9998C23.2 14.0766 22.4511 12.2685 21.0912 10.9086Z" fill="#FE9C5E"/>
<path d="M15.0379 22.6651C14.9586 22.6537 14.8787 22.6408 14.8005 22.6268C14.6736 22.6039 14.5524 22.6883 14.5296 22.8151C14.5068 22.9419 14.5911 23.0631 14.7179 23.086C14.8016 23.101 14.887 23.1148 14.9718 23.1269C14.983 23.1285 14.9941 23.1293 15.0051 23.1293C15.1193 23.1293 15.2191 23.0453 15.2358 22.9291C15.254 22.8015 15.1654 22.6833 15.0379 22.6651Z" fill="#FE9C5E"/>
<path d="M13.8979 22.3986C13.751 22.3504 13.6039 22.2964 13.4606 22.238C13.3414 22.1894 13.2052 22.2467 13.1566 22.366C13.108 22.4853 13.1653 22.6214 13.2846 22.6701C13.4379 22.7325 13.5953 22.7903 13.7524 22.8419C13.7765 22.8498 13.8011 22.8536 13.8252 22.8536C13.9232 22.8536 14.0145 22.7913 14.0468 22.693C14.0869 22.5706 14.0203 22.4388 13.8979 22.3986Z" fill="#FE9C5E"/>
<path d="M9.42138 17.4422C9.38845 17.2913 9.36038 17.1371 9.33796 16.9841C9.31926 16.8566 9.20091 16.7686 9.07339 16.7871C8.9459 16.8058 8.8577 16.9243 8.8764 17.0517C8.90039 17.2153 8.93037 17.3802 8.96562 17.5417C8.98944 17.6508 9.08602 17.7253 9.19329 17.7253C9.20977 17.7253 9.2265 17.7235 9.24324 17.7199C9.36907 17.6924 9.44886 17.5681 9.42138 17.4422Z" fill="#FE9C5E"/>
<path d="M9.12387 14.8494C9.1394 14.8525 9.15481 14.854 9.17005 14.854C9.27887 14.854 9.37627 14.7774 9.39849 14.6667C9.42895 14.515 9.46514 14.3625 9.50604 14.2135C9.54012 14.0893 9.46705 13.9609 9.34283 13.9268C9.21871 13.8927 9.09026 13.9658 9.05618 14.0901C9.01241 14.2495 8.97371 14.4126 8.94115 14.5748C8.91575 14.7011 8.99756 14.8241 9.12387 14.8494Z" fill="#FE9C5E"/>
<path d="M9.85913 18.7662C9.79557 18.6253 9.73617 18.4804 9.68256 18.3355C9.63787 18.2147 9.50366 18.1529 9.38286 18.1977C9.26203 18.2424 9.20033 18.3765 9.24502 18.4974C9.30234 18.6523 9.36587 18.8073 9.43388 18.9581C9.47283 19.0444 9.55771 19.0954 9.64664 19.0954C9.67871 19.0954 9.7113 19.0888 9.74244 19.0747C9.85989 19.0217 9.91209 18.8836 9.85913 18.7662Z" fill="#FE9C5E"/>
<path d="M9.0354 16.2912C9.16421 16.2902 9.26782 16.1849 9.26681 16.0561C9.26664 16.0373 9.26656 16.0185 9.26656 16C9.26656 15.8636 9.27069 15.7257 9.27882 15.59C9.28656 15.4614 9.18857 15.3509 9.05995 15.3432C8.9312 15.3354 8.82083 15.4335 8.81313 15.5621C8.80446 15.707 8.80005 15.8543 8.80005 16.0002C8.80005 16.02 8.80013 16.0399 8.8003 16.0598C8.80131 16.1879 8.90555 16.2912 9.03354 16.2912C9.03411 16.2912 9.03478 16.2912 9.0354 16.2912Z" fill="#FE9C5E"/>
<path d="M12.625 21.8278C12.4914 21.7502 12.3586 21.6669 12.2304 21.5801C12.1237 21.508 11.9787 21.5359 11.9065 21.6426C11.8342 21.7493 11.8622 21.8942 11.9689 21.9665C12.106 22.0593 12.2479 22.1484 12.3908 22.2313C12.4276 22.2527 12.4679 22.2628 12.5077 22.2628C12.5881 22.2628 12.6663 22.2212 12.7096 22.1466C12.7743 22.0352 12.7364 21.8925 12.625 21.8278Z" fill="#FE9C5E"/>
<path d="M10.2997 19.5859C10.2311 19.477 10.087 19.4443 9.97802 19.513C9.86904 19.5818 9.83641 19.7258 9.90512 19.8348C9.99329 19.9746 10.0875 20.1132 10.185 20.2465C10.2307 20.309 10.3016 20.3421 10.3735 20.3421C10.4213 20.3421 10.4695 20.3274 10.511 20.2971C10.615 20.221 10.6376 20.0751 10.5615 19.9711C10.4703 19.8463 10.3822 19.7168 10.2997 19.5859Z" fill="#FE9C5E"/>
<path d="M11.4971 21.0062C11.3821 20.9027 11.2693 20.7939 11.1617 20.6828C11.0721 20.5903 10.9245 20.5879 10.8319 20.6775C10.7393 20.7671 10.7369 20.9148 10.8266 21.0073C10.9415 21.1261 11.0621 21.2424 11.185 21.353C11.2296 21.3931 11.2854 21.4128 11.341 21.4128C11.4048 21.4128 11.4683 21.3868 11.5144 21.3356C11.6006 21.2398 11.5928 21.0924 11.4971 21.0062Z" fill="#FE9C5E"/>
<path d="M9.50864 13.4547C9.53879 13.4677 9.57015 13.4739 9.601 13.4739C9.69126 13.4739 9.77723 13.4212 9.81526 13.3331C9.84687 13.2599 9.88023 13.1862 9.91448 13.1142C9.96975 12.9978 9.92025 12.8587 9.8039 12.8034C9.68749 12.7481 9.54835 12.7977 9.49309 12.914C9.45647 12.991 9.42078 13.0698 9.38697 13.1481C9.3359 13.2663 9.39038 13.4036 9.50864 13.4547Z" fill="#FE9C5E"/>
<path fill-rule="evenodd" clip-rule="evenodd" d="M10.2018 9.15332L22.6469 21.5984L21.7983 22.4469L9.35325 10.0018L10.2018 9.15332Z" fill="#FE9C5E"/>
<path d="M24.85 15.9999C24.85 20.8876 20.8877 24.8499 16 24.8499C11.1123 24.8499 7.15002 20.8876 7.15002 15.9999C7.15002 11.1122 11.1123 7.1499 16 7.1499C20.8877 7.1499 24.85 11.1122 24.85 15.9999Z" stroke="#FE9C5E" stroke-width="1.5"/>
</svg>
