<svg width="32" height="32" viewBox="0 0 32 32" fill="none" xmlns="http://www.w3.org/2000/svg">
<rect opacity="0.2" width="32" height="32" rx="12" fill="#3EC8BC"/>
<path fill-rule="evenodd" clip-rule="evenodd" d="M22.7883 9.21165C20.975 7.39849 18.5643 6.3999 16 6.3999C13.4358 6.3999 11.025 7.39849 9.21177 9.21165C7.39861 11.0249 6.40002 13.4357 6.40002 15.9999C6.40002 18.5642 7.39861 20.9749 9.21177 22.7882C11.025 24.6013 13.4358 25.5999 16 25.5999C18.5643 25.5999 20.975 24.6013 22.7883 22.7882C24.6014 20.9749 25.6 18.5642 25.6 15.9999C25.6 13.4357 24.6014 11.0249 22.7883 9.21165ZM24.475 15.9999C24.475 18.1345 23.6814 20.087 22.3743 21.5787L18.2018 17.4062L15.3893 14.5937L10.4213 9.62561C11.913 8.31844 13.8654 7.5249 16 7.5249C20.6732 7.5249 24.475 11.3268 24.475 15.9999ZM9.62577 10.4211C8.3186 11.9128 7.52502 13.8653 7.52502 15.9999C7.52502 20.673 11.3269 24.4749 16 24.4749C18.1346 24.4749 20.0871 23.6814 21.5788 22.3742L16.6108 17.4062H13.5625V14.5937H13.7983L9.62577 10.4211Z" fill="#3EC8BC"/>
<path d="M8.6875 15.1562V16.8438C8.6875 17.1544 8.93935 17.4062 9.25 17.4062H12.4375V14.5938H9.25C8.93935 14.5938 8.6875 14.8456 8.6875 15.1562Z" fill="#3EC8BC"/>
<path d="M21.4375 17.4062H22.75C23.0606 17.4062 23.3125 17.1544 23.3125 16.8438V15.1562C23.3125 14.8456 23.0606 14.5938 22.75 14.5938H21.4375V17.4062Z" fill="#3EC8BC"/>
<path d="M20.5 12.4375C20.8102 12.4375 21.0625 12.6898 21.0625 13C21.0625 13.3106 21.3144 13.5625 21.625 13.5625C21.9356 13.5625 22.1875 13.3106 22.1875 13C22.1875 12.0695 21.4305 11.3125 20.5 11.3125C20.1898 11.3125 19.9375 11.0602 19.9375 10.75C19.9375 10.4394 19.6856 10.1875 19.375 10.1875C19.0644 10.1875 18.8125 10.4394 18.8125 10.75C18.8125 11.6805 19.5695 12.4375 20.5 12.4375Z" fill="#3EC8BC"/>
<path d="M20.3125 17.4062V14.5938H16.9802L19.7927 17.4062H20.3125Z" fill="#3EC8BC"/>
</svg>
