<svg width="24" height="24" viewBox="0 0 24 24" fill="none" xmlns="http://www.w3.org/2000/svg">
<path d="M5.47843 4.6958H4.6958V6.261H5.47843C5.90996 6.261 6.26105 5.90991 6.26105 5.47838C6.26105 5.04685 5.90996 4.6958 5.47843 4.6958Z" fill="#6155CC"/>
<path fill-rule="evenodd" clip-rule="evenodd" d="M24 18.5217C24 19.5407 23.3438 20.4013 22.4348 20.7254V21.6521C22.4348 21.9279 22.3783 22.1887 22.2906 22.4347H23.2174C23.6495 22.4347 24 22.785 24 23.2174C24 23.6497 23.6495 24 23.2174 24H0.782625C0.350578 24 0 23.6497 0 23.2174C0 22.7851 0.350578 22.4348 0.782625 22.4348H4.69566V12.4592C2.04516 12.0774 0 9.79781 0 7.04348V5.47828C0 2.45761 2.45742 0 5.47828 0C8.49914 0 10.9565 2.45761 10.9565 5.47828V7.04348C10.9565 9.79781 8.91136 12.0774 6.26086 12.4592V22.4347H9.5355C9.44789 22.1887 9.39131 21.9278 9.39131 21.6521V20.7253C8.48236 20.4012 7.82611 19.5406 7.82611 18.5217V16.9565C7.82611 15.8677 8.57456 14.958 9.58153 14.6937L10.6401 11.5182C10.9601 10.5583 11.8548 9.91298 12.8672 9.91298H18.9589C19.9713 9.91298 20.866 10.5583 21.186 11.5185L22.2445 14.6937C23.2515 14.9581 24 15.8677 24 16.9565V18.5217ZM4.69566 8.60873V7.82611V7.82606H5.47823C6.77287 7.82606 7.82606 6.77287 7.82606 5.47823C7.82606 4.18359 6.77287 3.13041 5.47823 3.13041H3.91303C3.48098 3.13041 3.13041 3.4807 3.13041 3.91303V7.04353V8.60873C3.13041 9.04106 3.48098 9.39136 3.91303 9.39136C4.34508 9.39136 4.69566 9.04106 4.69566 8.60873ZM12.1249 12.0133C12.2319 11.6933 12.53 11.4783 12.8673 11.4783H18.959C19.2963 11.4783 19.5944 11.6933 19.7014 12.0135L20.5664 14.6087H11.2597L12.1249 12.0133ZM9.39127 18.5217C9.39127 18.9533 9.74236 19.3043 10.1739 19.3043H12.2187L11.1752 16.1739H10.1739C9.74236 16.1739 9.39127 16.525 9.39127 16.9565V18.5217ZM13.9427 22.4348C14.0304 22.1888 14.0869 21.9279 14.0869 21.6522V20.8695H17.7391V21.6522C17.7391 21.9279 17.7957 22.1888 17.8833 22.4348H13.9427ZM19.6074 19.3043H21.6522C22.0837 19.3043 22.4348 18.9533 22.4348 18.5217V16.9565C22.4348 16.525 22.0838 16.1739 21.6522 16.1739H20.6509L19.6074 19.3043Z" fill="#6155CC"/>
</svg>
