<svg width="24" height="24" viewBox="0 0 24 24" fill="none" xmlns="http://www.w3.org/2000/svg">
<path d="M20.16 12.0001C20.16 12.2652 19.9451 12.4801 19.68 12.4801H12.48V19.6801C12.48 19.9452 12.2651 20.1601 12 20.1601C11.7349 20.1601 11.52 19.9452 11.52 19.6801V12.4801H4.31997C4.05487 12.4801 3.83997 12.2652 3.83997 12.0001C3.83997 11.735 4.05487 11.5201 4.31997 11.5201H11.52V4.32009C11.52 4.05499 11.7349 3.84009 12 3.84009C12.2651 3.84009 12.48 4.05499 12.48 4.32009V11.5201H19.68C19.9451 11.5201 20.16 11.735 20.16 12.0001Z" fill="#232323"/>
</svg>
