<svg width="24" height="24" viewBox="0 0 24 24" fill="none" xmlns="http://www.w3.org/2000/svg">
<path fill-rule="evenodd" clip-rule="evenodd" d="M24 4V3C24 1.34315 22.6569 0 21 0C19.3431 0 18 1.34315 18 3V6H13V3C13 2.44772 13.4477 2 14 2C14.5523 2 15 2.44772 15 3V4H17V3C17 1.34315 15.6569 0 14 0C12.3431 0 11 1.34315 11 3V14.15C10.5414 14.0434 10.0715 13.993 9.60075 14C8.40075 14 7.80075 14.25 7.20075 14.5C6.60075 14.75 6.00075 15 4.80075 15C3.60075 15 3.00056 14.75 2.40037 14.5C1.80019 14.25 1.2 14 0 14V18C1.2 18 1.8 18.25 2.4 18.5C3 18.75 3.6 19 4.8 19C6 19 6.6 18.75 7.2 18.5C7.8 18.25 8.4 18 9.6 18C10.8 18 11.4 18.25 12 18.5C12.6 18.75 13.2 19 14.4 19C15.6 19 16.2 18.75 16.8 18.5C17.4 18.25 18 18 19.2 18C20.4 18 21 18.25 21.6 18.5C22.2 18.75 22.8 19 24 19V15C22.8 15 22.1998 14.75 21.5998 14.5C21.1504 14.3128 20.7011 14.1256 20 14.0434V3C20 2.44772 20.4477 2 21 2C21.5523 2 22 2.44772 22 3V4H24ZM18 8V10H13V8H18ZM13 12V14.85C13.4588 14.9567 13.929 15.007 14.4 15C15.6005 15 16.201 14.7501 16.8014 14.5001C17.1588 14.3514 17.5162 14.2027 18 14.1066V12H13Z" fill="#6155CC"/>
<path d="M14.4 20C12 20 12 19 9.6 19C7.2 19 7.2 20 4.8 20C2.4 20 2.4 19 0 19V24H24V20C21.6 20 21.6 19 19.2 19C16.8 19 16.8 20 14.4 20Z" fill="#6155CC"/>
</svg>
