<svg width="20" height="20" viewBox="0 0 20 20" fill="none" xmlns="http://www.w3.org/2000/svg">
<path fill-rule="evenodd" clip-rule="evenodd" d="M18.6618 9.73312C18.5814 9.89084 18.5814 10.0718 18.6618 10.2295L19.407 11.6916C19.8219 12.5057 19.4932 13.476 18.6586 13.9007L17.1597 14.6634C16.998 14.7457 16.8872 14.8921 16.8555 15.065L16.5623 16.6679C16.3991 17.5604 15.5387 18.1602 14.603 18.0332L12.9229 17.8053C12.7416 17.7809 12.5622 17.8366 12.4306 17.9587L11.2111 19.0902C10.8716 19.4052 10.4358 19.5627 10.0001 19.5627C9.56438 19.5627 9.12879 19.4052 8.7892 19.0902L7.56965 17.9587C7.43806 17.8366 7.25863 17.7806 7.07744 17.8053L5.39732 18.0332C5.31346 18.0446 5.23002 18.0501 5.1478 18.0501C4.31295 18.0502 3.58655 17.4804 3.43795 16.6679L3.14479 15.065C3.11315 14.8921 3.00228 14.7457 2.84056 14.6634L1.34163 13.9007C0.507058 13.476 0.178316 12.5057 0.593224 11.6916L1.33843 10.2296C1.41882 10.0719 1.41882 9.89095 1.33843 9.73319L0.593263 8.27115C0.178355 7.45708 0.507097 6.48671 1.34167 6.06206L2.8406 5.2993C3.00228 5.217 3.11315 5.07062 3.14479 4.89771L3.43795 3.29483C3.60118 2.40235 4.46167 1.80255 5.39728 1.92954L7.0774 2.15746C7.25871 2.18194 7.43802 2.12614 7.56961 2.00405L8.7892 0.87245C9.46823 0.242368 10.532 0.242405 11.2111 0.87245L12.4306 2.00394C12.5622 2.12599 12.7415 2.1819 12.9229 2.15735L14.603 1.92942C15.5383 1.80251 16.3991 2.40224 16.5623 3.29472L16.8555 4.89768C16.8871 5.07055 16.998 5.21696 17.1597 5.29923L18.6586 6.06199C19.4932 6.48667 19.8219 7.45696 19.407 8.27104L18.6618 9.73312ZM9.80805 7.03408C9.80805 5.91681 8.86027 5.00782 7.69531 5.00782C6.53036 5.00782 5.58257 5.91681 5.58257 7.03408C5.58257 8.15135 6.53036 9.06033 7.69531 9.06033C8.86027 9.06033 9.80805 8.15135 9.80805 7.03408ZM6.60481 14.0191C6.49231 14.127 6.34483 14.181 6.1974 14.181C6.04996 14.181 5.90245 14.127 5.78998 14.0191C5.56497 13.8033 5.56497 13.4534 5.78998 13.2376L13.3954 5.9435C13.6204 5.72769 13.9853 5.72769 14.2103 5.9435C14.4353 6.1593 14.4353 6.5092 14.2103 6.72501L6.60481 14.0191ZM10.1921 12.9286C10.1921 14.0459 11.1399 14.9548 12.3049 14.9548C13.4698 14.9548 14.4176 14.0459 14.4176 12.9286C14.4176 11.8113 13.4698 10.9023 12.3049 10.9023C11.1399 10.9023 10.1921 11.8113 10.1921 12.9286Z" fill="#FE9C5E"/>
</svg>
