<svg width="32" height="32" viewBox="0 0 32 32" fill="none" xmlns="http://www.w3.org/2000/svg">
<rect opacity="0.2" width="32" height="32" rx="12" fill="#F77777"/>
<path d="M14.2749 23.3125H17.6874V25.6H14.2749V23.3125Z" fill="#F77777"/>
<path fill-rule="evenodd" clip-rule="evenodd" d="M13.7124 22.1874C13.4015 22.1874 13.1499 22.439 13.1499 22.7499V25.5999H10.8999V11.4999C10.8999 11.1893 11.1518 10.9374 11.4624 10.9374H13.1499V9.2499C13.1499 8.93925 13.4018 8.6874 13.7124 8.6874H15.4374V6.9624C15.4374 6.65149 15.689 6.3999 15.9999 6.3999C16.3108 6.3999 16.5624 6.65149 16.5624 6.9624V8.6874H18.2499C18.5606 8.6874 18.8124 8.93925 18.8124 9.2499V10.9374H20.5374C20.8481 10.9374 21.0999 11.1893 21.0999 11.4999V25.5999H18.8124V22.7499C18.8124 22.439 18.5608 22.1874 18.2499 22.1874H13.7124ZM18.2499 14.3124H13.7124C13.4015 14.3124 13.1499 14.564 13.1499 14.8749C13.1499 15.1858 13.4015 15.4374 13.7124 15.4374H18.2499C18.5608 15.4374 18.8124 15.1858 18.8124 14.8749C18.8124 14.564 18.5608 14.3124 18.2499 14.3124ZM13.7124 16.5624H18.2499C18.5608 16.5624 18.8124 16.814 18.8124 17.1249C18.8124 17.4358 18.5608 17.6874 18.2499 17.6874H13.7124C13.4015 17.6874 13.1499 17.4358 13.1499 17.1249C13.1499 16.814 13.4015 16.5624 13.7124 16.5624ZM18.2499 18.8124H13.7124C13.4015 18.8124 13.1499 19.064 13.1499 19.3749C13.1499 19.6858 13.4015 19.9374 13.7124 19.9374H18.2499C18.5608 19.9374 18.8124 19.6858 18.8124 19.3749C18.8124 19.064 18.5608 18.8124 18.2499 18.8124Z" fill="#F77777"/>
<path fill-rule="evenodd" clip-rule="evenodd" d="M9.7749 25.6H6.9624C6.65149 25.6 6.3999 25.3484 6.3999 25.0375V18.25C6.3999 17.9391 6.65149 17.6875 6.9624 17.6875H8.0874V16C8.0874 15.6891 8.33899 15.4375 8.6499 15.4375H9.7749V25.6ZM8.0874 19.9375C7.77649 19.9375 7.5249 20.1891 7.5249 20.5V22.75C7.5249 23.0609 7.77649 23.3125 8.0874 23.3125C8.39831 23.3125 8.6499 23.0609 8.6499 22.75V20.5C8.6499 20.1891 8.39831 19.9375 8.0874 19.9375Z" fill="#F77777"/>
<path fill-rule="evenodd" clip-rule="evenodd" d="M23.9126 17.6875H25.0376C25.3485 17.6875 25.6001 17.9391 25.6001 18.25V25.0375C25.6001 25.3484 25.3485 25.6 25.0376 25.6H22.2251V15.4375H23.3501C23.661 15.4375 23.9126 15.6891 23.9126 16V17.6875ZM23.9126 23.3125C24.2235 23.3125 24.4751 23.0609 24.4751 22.75V20.5C24.4751 20.1891 24.2235 19.9375 23.9126 19.9375C23.6017 19.9375 23.3501 20.1891 23.3501 20.5V22.75C23.3501 23.0609 23.6017 23.3125 23.9126 23.3125Z" fill="#F77777"/>
</svg>
