<svg width="24" height="24" viewBox="0 0 24 24" fill="none" xmlns="http://www.w3.org/2000/svg">
<path d="M21.12 10.5601H1.92001C0.86112 10.5601 0 11.4212 0 12.48C0 13.5389 0.86112 14.4 1.92001 14.4H21.12C22.1789 14.4 23.04 13.5389 23.04 12.48C23.04 11.4212 22.1789 10.5601 21.12 10.5601Z" fill="#6155CC"/>
<path d="M16.7999 8.64014C15.477 8.64014 14.3999 9.71726 14.3999 11.0401C14.3999 11.3051 14.615 11.5201 14.8799 11.5201C15.1449 11.5201 15.3599 11.3051 15.3599 11.0401H18.2399C18.2399 11.3051 18.455 11.5201 18.7199 11.5201C18.9849 11.5201 19.2 11.3051 19.2 11.0401C19.1999 9.71726 18.1228 8.64014 16.7999 8.64014Z" fill="#6155CC"/>
<path d="M12.1172 10.9803L11.7265 7.86217C11.5767 6.66314 10.5534 5.75977 9.3447 5.75977H8.64009V7.19977C8.64009 7.46473 8.42504 7.67978 8.16008 7.67978C7.89512 7.67978 7.68006 7.46473 7.68006 7.19977V5.75977H6.97541C5.76774 5.75977 4.74341 6.66314 4.59365 7.86217L4.2039 10.9803C4.17128 11.2433 4.35749 11.4833 4.62056 11.5159C4.88745 11.5467 5.12262 11.3624 5.15624 11.0993L5.16393 11.0398H7.68011V9.11974C7.68011 8.85478 7.89516 8.63972 8.16012 8.63972C8.42508 8.63972 8.64009 8.85482 8.64009 9.11978V11.0398H11.1563L11.164 11.0993C11.1947 11.3422 11.4011 11.5198 11.6401 11.5198C11.6603 11.5198 11.6804 11.5189 11.7006 11.516C11.9636 11.4833 12.1499 11.2433 12.1172 10.9803Z" fill="#6155CC"/>
<path d="M8.15975 4.79997C9.48523 4.79997 10.5597 3.72546 10.5597 2.39999C10.5597 1.07451 9.48523 0 8.15975 0C6.83428 0 5.75977 1.07451 5.75977 2.39999C5.75977 3.72546 6.83428 4.79997 8.15975 4.79997Z" fill="#6155CC"/>
<path d="M20.6927 13.4428C20.4345 13.415 20.1925 13.6032 20.1628 13.8671L20.157 13.9199H2.88279L2.87703 13.8671C2.84823 13.6041 2.6159 13.414 2.34711 13.4428C2.08409 13.4726 1.89401 13.7097 1.92281 13.9727L2.88279 22.6127C2.90966 22.8566 3.11513 23.0399 3.35993 23.0399H19.6799C19.9247 23.0399 20.1302 22.8566 20.1571 22.6127L21.1171 13.9727C21.1458 13.7097 20.9567 13.4726 20.6927 13.4428Z" fill="#6155CC"/>
<path d="M16.8002 7.68018C15.3098 7.68018 14.1001 8.88985 14.1001 10.3802V15.7801C14.1001 17.2705 15.3098 18.4802 16.8002 18.4802C18.2905 18.4802 19.5002 17.2705 19.5002 15.7801V10.3802C19.5002 8.8896 18.2905 7.68018 16.8002 7.68018Z" fill="#6155CC"/>
</svg>
