<svg width="32" height="32" viewBox="0 0 32 32" fill="none" xmlns="http://www.w3.org/2000/svg">
<rect opacity="0.2" width="32" height="32" rx="12" fill="#6150CF"/>
<path d="M11.726 11.5381L12.1457 11.1167L8.41488 7.37631C8.29901 7.25998 8.11122 7.25998 7.99535 7.37631C7.87948 7.49263 7.87948 7.68116 7.99535 7.79748L11.726 11.5381Z" fill="#6155CC"/>
<path d="M11.0651 12.1692L11.4848 11.7478L7.77328 8.02035C7.65741 7.90402 7.46962 7.90402 7.35375 8.02035C7.23788 8.13667 7.23788 8.3252 7.35375 8.44152L11.0651 12.1692Z" fill="#6155CC"/>
<path d="M14.3451 11.5254C14.3307 10.9232 14.0974 10.3523 13.6972 9.91617L9.66753 6.51309C9.50903 6.37911 9.2748 6.38926 9.12832 6.53632C8.97246 6.69294 8.97246 6.94661 9.12832 7.10309L12.2023 10.1893C12.3908 10.3785 12.3908 10.6853 12.2023 10.8746L10.8382 12.244C10.6497 12.4332 10.3441 12.4332 10.1556 12.244L7.08149 9.15794C6.92563 9.00147 6.6728 9.00147 6.51694 9.15794C6.37046 9.305 6.36035 9.54014 6.4938 9.69926L9.88359 13.7447C10.3181 14.1465 10.8867 14.3807 11.4866 14.3953L12.652 14.3988C13.1903 14.4006 13.7036 14.6282 14.0676 15.0265L23.3361 25.2421C23.7891 25.734 24.6349 25.6725 25.1065 25.1988C25.5784 24.7251 25.6396 23.876 25.1496 23.4215L14.9739 14.1166C14.5772 13.7512 14.3505 13.2359 14.3487 12.6954L14.3451 11.5254Z" fill="#6155CC"/>
<path d="M21.9612 13.6487C22.6973 13.5864 23.3662 13.1943 23.7823 12.5815L24.7017 11.2271C25.4548 10.1179 25.7507 8.75874 25.5272 7.43507C25.4907 7.2186 25.3814 7.02933 25.2267 6.89168C25.0721 6.75404 24.8718 6.66786 24.6533 6.65727C23.3175 6.5933 22.0089 7.0511 21.0023 7.93477L19.7731 9.01345C19.2169 9.50168 18.9095 10.2154 18.9361 10.9565L19.0025 12.1245C19.0329 12.6642 18.8377 13.1923 18.4634 13.5809L8.86268 23.4824C8.40082 23.9658 8.51273 24.8098 9.01195 25.254C9.51131 25.6984 10.3592 25.7087 10.7818 25.1905L19.4224 14.4345C19.762 14.0149 20.2608 13.757 20.7981 13.7227L21.9612 13.6487Z" fill="#6155CC"/>
</svg>
