<svg width="16" height="17" viewBox="0 0 16 17" fill="none" xmlns="http://www.w3.org/2000/svg">
<g id="Budicon-Outline/Interface/search Copy">
<path id="Shape" fill-rule="evenodd" clip-rule="evenodd" d="M10.6407 10.8284L15.3142 15.5021C15.4355 15.6277 15.4338 15.8272 15.3103 15.9507C15.1869 16.0741 14.9873 16.0758 14.8618 15.9546L10.1882 11.2808C7.72907 13.4947 3.95377 13.3462 1.67619 10.9459C-0.601403 8.54563 -0.551872 4.76773 1.78786 2.428C4.12759 0.0882645 7.90549 0.0387339 10.3058 2.31632C12.706 4.59391 12.8546 8.36921 10.6407 10.8284ZM0.688002 6.76837C0.688002 9.7728 3.12357 12.2084 6.128 12.2084C9.13097 12.2048 11.5645 9.77134 11.568 6.76837C11.568 3.76394 9.13243 1.32837 6.128 1.32837C3.12357 1.32837 0.688002 3.76394 0.688002 6.76837Z" fill="black"/>
</g>
</svg>
