<svg width="32" height="32" viewBox="0 0 32 32" fill="none" xmlns="http://www.w3.org/2000/svg">
<g id="Group 5">
<rect id="Rectangle" opacity="0.2" width="32" height="32" rx="8" fill="#F77777"/>
<g id="seat copy">
<path id="Path" d="M10.4799 10.9649H12.0799C12.4334 10.9649 12.7199 10.6686 12.7199 10.303C12.7199 9.93737 12.4334 9.641 12.0799 9.641C11.9519 9.66934 11.8196 9.61843 11.7408 9.5104C11.663 9.40479 11.6534 9.26161 11.7161 9.146C11.7449 9.0954 11.7602 9.03767 11.76 8.97904C11.7596 8.82661 11.6585 8.69419 11.5154 8.65828C11.3723 8.62237 11.2239 8.69222 11.1559 8.82752C11.0881 8.96267 11.1183 9.12843 11.229 9.22888C11.2472 9.24222 11.2646 9.25616 11.2822 9.27055C11.4171 9.38161 11.4427 9.58328 11.34 9.72661C11.2375 9.86994 11.0436 9.90343 10.9015 9.80222C10.8802 9.78722 10.8596 9.77146 10.8397 9.75479C10.6122 9.5951 10.3117 9.60343 10.0929 9.7754C9.87403 9.94737 9.7857 10.2446 9.87329 10.514C9.96104 10.7834 10.2051 10.9648 10.4799 10.9649Z" fill="#F77777"/>
<path id="Path_2" d="M14.66 11.2944C14.429 11.2873 14.2122 11.4092 14.0925 11.6138C13.9729 11.8183 13.969 12.0738 14.0824 12.282C14.1958 12.4903 14.4089 12.6194 14.6399 12.6197H15.1072C15.4242 12.2567 15.5999 11.7849 15.6 11.2958V10.6336C15.6 10.4509 15.4567 10.3027 15.2799 10.3027C15.1033 10.3027 14.96 10.4509 14.96 10.6336C14.9596 10.6924 14.9747 10.75 15.0038 10.8005C15.0699 10.9139 15.0642 11.0573 14.9893 11.1647C14.9146 11.2723 14.785 11.3232 14.66 11.2944Z" fill="#F77777"/>
<path id="Path_3" d="M9.83997 7.9857V9.16282C10.0338 9.04358 10.2547 8.98009 10.48 8.97873C10.48 8.43025 10.9099 7.9857 11.44 7.9857C11.9703 7.9857 12.4001 8.43025 12.4001 8.97873C12.4001 8.99267 12.3998 9.00646 12.399 9.0204C13.0237 9.18646 13.4312 9.80722 13.3502 10.469C13.2692 11.1307 12.7248 11.6268 12.08 11.6266H10.48C10.2576 11.6252 10.0393 11.5631 9.84744 11.4466C9.92419 12.4809 10.7573 13.2799 11.7601 13.2816H13.6801C13.8615 13.2813 14.0422 13.2542 14.2163 13.2012C13.6846 13.0095 13.337 12.4799 13.3612 11.8981C13.3853 11.3162 13.7753 10.8193 14.3209 10.6754C14.3203 10.6615 14.32 10.6475 14.32 10.6336C14.3206 10.0855 14.7501 9.64131 15.28 9.6407C15.3892 9.64176 15.4975 9.66237 15.6 9.70161V7.9857C15.5996 7.76009 15.5616 7.53615 15.488 7.32373H9.95203C9.87834 7.53615 9.84041 7.76009 9.83997 7.9857Z" fill="#F77777"/>
<path id="Path_4" d="M13.68 6H11.7601C11.2148 6.0003 10.6957 6.24121 10.333 6.66197H15.1072C14.7444 6.24106 14.2252 6.0003 13.68 6Z" fill="#F77777"/>
<path id="Path_5" d="M17.9433 21.2256L18.3267 20.2335L15.28 20.2329H9.99304L10.3767 21.2256H17.9433Z" fill="#F77777"/>
<path id="Shape" fill-rule="evenodd" clip-rule="evenodd" d="M23.4887 9.25382L19.9687 18.5215C19.7597 19.0719 19.2827 19.4652 18.7174 19.5531C18.152 19.6411 17.5844 19.4103 17.228 18.9481C16.8717 18.4856 16.7809 17.8617 16.9899 17.3114L20.51 8.04367C20.8331 7.19276 21.7618 6.77397 22.5843 7.10822C23.4068 7.44246 23.8117 8.40306 23.4887 9.25382ZM18.48 16.9234C17.9497 16.9234 17.5199 17.3679 17.5199 17.9162C17.5205 18.4644 17.95 18.9087 18.48 18.9093C19.0101 18.9093 19.4399 18.4647 19.4399 17.9162C19.4399 17.3679 19.0101 16.9234 18.48 16.9234Z" fill="#F77777"/>
<path id="Path_6" d="M8.88 18.2471V19.2402C8.88015 19.4229 9.02327 19.5709 9.19993 19.5711H16.9119C16.5307 19.182 16.2961 18.6652 16.2501 18.1134C16.2403 18.0906 16.2331 18.0667 16.2287 18.0423C16.1307 17.0288 15.3047 16.2581 14.32 16.2612H10.8C9.74001 16.2625 8.88118 17.1508 8.88 18.2471Z" fill="#F77777"/>
<path id="Path_7" d="M18.7999 17.9159C18.7999 18.0987 18.6566 18.2469 18.48 18.2469C18.3032 18.2469 18.1599 18.0987 18.1599 17.9159C18.1599 17.7331 18.3032 17.585 18.48 17.585C18.6566 17.585 18.7999 17.7331 18.7999 17.9159Z" fill="#F77777"/>
<path id="Path_8" d="M6.32007 25.1975H24.8799C25.0567 25.1975 25.2 25.0494 25.2 24.8665C25.2 24.6838 25.0567 24.5356 24.8799 24.5356H18.8004L18.8 21.8877H18.161L18.16 21.8878L18.1592 21.8877H10.1607L10.16 21.8878L10.159 21.8877H9.52002V24.5356H6.32007C6.14326 24.5356 6 24.6838 6 24.8665C6 25.0494 6.14326 25.1975 6.32007 25.1975Z" fill="#F77777"/>
</g>
</g>
</svg>
