<svg width="32" height="32" viewBox="0 0 32 32" fill="none" xmlns="http://www.w3.org/2000/svg">
<rect opacity="0.2" width="32" height="32" rx="12" fill="#3EC8BC"/>
<path d="M18.9555 22.8452H16.1712C16.0697 22.8452 15.9864 22.8773 15.9211 22.9417C15.856 23.0059 15.8232 23.088 15.8232 23.1879V25.2434C15.8232 25.3437 15.8558 25.4254 15.9211 25.4898C15.9864 25.554 16.0697 25.5861 16.1712 25.5861H18.9555C19.0571 25.5861 19.1405 25.554 19.2055 25.4898C19.271 25.4254 19.3032 25.3437 19.3032 25.2434V23.1879C19.3032 23.088 19.2709 23.0058 19.2055 22.9417C19.1405 22.8773 19.0571 22.8452 18.9555 22.8452Z" fill="#3EC8BC"/>
<path d="M13.7349 21.4746H11.6467V6.7425C11.6467 6.64264 11.6141 6.5604 11.5488 6.49624C11.4835 6.43211 11.4002 6.3999 11.2986 6.3999H9.21033C9.10888 6.3999 9.02533 6.43196 8.96015 6.4962C8.89505 6.56051 8.86233 6.64264 8.86233 6.74246V21.4745H6.77402C6.61463 21.4745 6.50583 21.5459 6.44777 21.6886C6.38968 21.8244 6.4152 21.9492 6.52385 22.0634L10.0043 25.4896C10.084 25.5536 10.1674 25.5857 10.2544 25.5857C10.3487 25.5857 10.4322 25.5536 10.5046 25.4896L13.9742 22.0742C14.0468 21.9887 14.083 21.9028 14.083 21.8175C14.083 21.7172 14.0502 21.6353 13.9851 21.5706C13.9199 21.5067 13.8366 21.4746 13.7349 21.4746Z" fill="#3EC8BC"/>
<path d="M21.0439 17.3633H16.1712C16.0697 17.3633 15.9864 17.3953 15.9211 17.4595C15.8559 17.5237 15.8232 17.6058 15.8232 17.7056V19.7615C15.8232 19.8613 15.8558 19.9435 15.9211 20.0076C15.9864 20.0718 16.0697 20.1038 16.1712 20.1038H21.0439C21.1454 20.1038 21.2288 20.0718 21.2939 20.0076C21.3592 19.9434 21.3919 19.8613 21.3919 19.7615V17.7056C21.3919 17.6058 21.3592 17.5236 21.2939 17.4595C21.2288 17.3954 21.1454 17.3633 21.0439 17.3633Z" fill="#3EC8BC"/>
<path d="M25.4706 6.4962C25.4052 6.43211 25.3219 6.3999 25.2203 6.3999H16.1712C16.0697 6.3999 15.9864 6.43196 15.9211 6.4962C15.856 6.56051 15.8232 6.64264 15.8232 6.74246V8.79814C15.8232 8.89811 15.8558 8.98013 15.9211 9.0444C15.9864 9.10849 16.0697 9.1407 16.1712 9.1407H25.2203C25.3219 9.1407 25.4052 9.10864 25.4705 9.0444C25.5357 8.98013 25.5683 8.89811 25.5683 8.79814V6.7425C25.5684 6.64264 25.5357 6.56036 25.4706 6.4962Z" fill="#3EC8BC"/>
<path d="M23.1322 11.8818H16.1712C16.0697 11.8818 15.9864 11.9139 15.9211 11.9782C15.8559 12.0424 15.8232 12.1245 15.8232 12.2245V14.2801C15.8232 14.3801 15.8558 14.4621 15.9211 14.5263C15.9864 14.5905 16.0697 14.6227 16.1712 14.6227H23.1322C23.2337 14.6227 23.3171 14.5906 23.3825 14.5263C23.4476 14.4621 23.4802 14.3801 23.4802 14.2801V12.2245C23.4802 12.1245 23.4476 12.0423 23.3825 11.9782C23.317 11.914 23.2335 11.8818 23.1322 11.8818Z" fill="#3EC8BC"/>
</svg>
