<svg width="24" height="24" viewBox="0 0 24 24" fill="none" xmlns="http://www.w3.org/2000/svg">
<path fill-rule="evenodd" clip-rule="evenodd" d="M15.5396 2.994H16.4669C20.5948 2.994 23.9522 6.35142 23.9552 10.4804V14.4725C23.9552 17.6963 21.9032 20.4419 19.0408 21.4938L19.9101 23.2325C20.0328 23.479 19.933 23.7784 19.6865 23.9022C19.6146 23.9381 19.5388 23.9551 19.464 23.9551C19.2803 23.9551 19.1047 23.8543 19.0168 23.6796L18.0687 21.7833C17.5527 21.8971 17.0177 21.96 16.4688 21.96H7.48636C6.93647 21.96 6.40248 21.8961 5.8865 21.7833L4.93834 23.6796C4.85053 23.8543 4.67485 23.9551 4.49123 23.9551C4.41637 23.9551 4.34054 23.9381 4.26868 23.9022C4.02213 23.7784 3.92136 23.479 4.0451 23.2325L4.91439 21.4939C2.05099 20.4409 0 17.6953 0 14.4726V10.4804C0 6.35245 3.35743 2.99503 7.48538 2.99503H9.86274L6.76379 1.44504C6.51724 1.32125 6.41647 1.02183 6.54021 0.77533C6.664 0.52878 6.96342 0.428008 7.20992 0.551751L12.0265 2.96008L22.3194 0.0187917C22.5839 -0.0540504 22.8604 0.0966396 22.9362 0.362137C23.0111 0.626605 22.8584 0.903096 22.5929 0.978932L15.5396 2.994ZM11.4766 18.9628C14.5037 18.9628 16.9658 16.5006 16.9658 13.4735V11.4774C16.9658 8.45032 14.5037 5.98815 11.4766 5.98815H8.48243C5.45535 5.98815 2.99317 8.45032 2.99317 11.4774V13.4735C2.99317 16.5006 5.45535 18.9628 8.48243 18.9628H11.4766ZM19.96 6.98618C20.5099 6.98618 20.958 7.43432 20.958 7.98422C20.958 8.53416 20.5099 8.98225 19.96 8.98225C19.4101 8.98225 18.962 8.53411 18.962 7.98422C18.962 7.43432 19.4101 6.98618 19.96 6.98618ZM18.962 16.9667C18.962 17.5166 19.4101 17.9648 19.96 17.9648C20.5099 17.9648 20.9581 17.5166 20.958 16.9667C20.958 16.4168 20.5099 15.9687 19.96 15.9687C19.4101 15.9687 18.962 16.4168 18.962 16.9667ZM21.4571 13.9726H19.461C19.1855 13.9726 18.9619 13.749 18.9619 13.4735C18.9619 13.1981 19.1855 12.9745 19.461 12.9745H21.4571C21.7325 12.9745 21.9561 13.1981 21.9561 13.4735C21.9561 13.749 21.7325 13.9726 21.4571 13.9726ZM19.461 11.9765H21.4571C21.7325 11.9765 21.9561 11.7529 21.9561 11.4774C21.9561 11.202 21.7325 10.9784 21.4571 10.9784H19.461C19.1855 10.9784 18.9619 11.202 18.9619 11.4774C18.9619 11.7529 19.1855 11.9765 19.461 11.9765Z" fill="#6155CC"/>
</svg>
