<svg width="32" height="32" viewBox="0 0 32 32" fill="none" xmlns="http://www.w3.org/2000/svg">
<rect opacity="0.2" width="32" height="32" rx="12" fill="#6155CC"/>
<path d="M25.6 21.2894C25.6 21.8938 25.0919 22.3838 24.4651 22.3838H7.53493C6.90812 22.3838 6.39999 21.8938 6.39999 21.2894V10.7108C6.39999 10.1064 6.90812 9.61646 7.53493 9.61646H24.4651C25.0919 9.61646 25.6 10.1064 25.6 10.7108V21.2894Z" fill="white"/>
<path d="M10.6615 16.0737L10.2107 13.9884C10.1336 13.7009 9.90936 13.6153 9.62916 13.604H7.56224L7.54382 13.6993C9.15366 14.0756 10.2188 14.9834 10.6615 16.0737Z" fill="#FE9C5E"/>
<path d="M15.4508 13.646H14.1153L13.2812 18.3656H14.6145L15.4508 13.646Z" fill="#3EC8BC"/>
<path d="M11.4754 18.3608L13.5758 13.6492H12.1624L10.8558 16.8683L10.7163 16.3822C10.4602 15.7975 9.7282 14.9559 8.86885 14.4261L10.0632 18.3624L11.4754 18.3608Z" fill="#3EC8BC"/>
<path d="M19.2599 16.8227C19.2648 16.2869 18.908 15.8782 18.1391 15.5406C17.6718 15.3226 17.387 15.1772 17.3904 14.9559C17.3904 14.7605 17.6316 14.5505 18.1542 14.5505C18.5915 14.544 18.9064 14.6361 19.1526 14.7314L19.2733 14.7847L19.4543 13.7623C19.1896 13.6669 18.7758 13.5652 18.2582 13.5652C16.9398 13.5652 16.0118 14.2049 16.0034 15.1223C15.995 15.8007 16.6669 16.1787 17.1727 16.4048C17.692 16.6353 17.8662 16.7828 17.8629 16.9895C17.8595 17.3056 17.4491 17.4498 17.0655 17.4498C16.5311 17.4498 16.248 17.3788 15.8089 17.2024L15.6383 17.1268L15.4508 18.1844C15.7622 18.3156 16.3384 18.4303 16.9365 18.4351C18.3385 18.4351 19.2498 17.8035 19.2599 16.8227Z" fill="#3EC8BC"/>
<path fill-rule="evenodd" clip-rule="evenodd" d="M21.6151 17.659C21.2562 17.6586 20.9178 17.6582 20.8462 17.6582C20.7943 17.7859 20.5665 18.3673 20.5666 18.3673H19.1644L21.1461 14.0417C21.2869 13.7349 21.5247 13.6509 21.8447 13.6509H22.8749L23.9554 18.3673H22.7174C22.7174 18.3673 22.5952 17.8242 22.555 17.6598C22.4519 17.6598 22.0204 17.6594 21.6151 17.659ZM21.7945 15.2874C21.7725 15.3424 21.7584 15.3774 21.7608 15.3727C21.7608 15.3727 21.3404 16.421 21.2298 16.6923H22.3371C22.2836 16.4565 22.0289 15.329 22.0289 15.329L21.9385 14.922C21.8959 15.0349 21.833 15.1916 21.7945 15.2874Z" fill="#3EC8BC"/>
<path d="M24.4651 9.61646H7.53493C6.90812 9.61646 6.39999 10.1064 6.39999 10.7108V11.8466H25.6V10.7108C25.6 10.1064 25.0919 9.61646 24.4651 9.61646Z" fill="#3EC8BC"/>
<path d="M24.4651 22.3837H7.53493C6.90812 22.3837 6.39999 21.8937 6.39999 21.2894V20.1536H25.6V21.2894C25.6 21.8937 25.0919 22.3837 24.4651 22.3837Z" fill="#FE9C5E"/>
<path opacity="0.15" d="M7.20688 21.2894V10.7108C7.20688 10.1064 7.71504 9.61646 8.34189 9.61646H7.53489C6.90812 9.61646 6.39999 10.1064 6.39999 10.7108V21.2894C6.39999 21.8939 6.90812 22.3838 7.53493 22.3838H8.34193C7.71508 22.3838 7.20688 21.8938 7.20688 21.2894Z" fill="#202121"/>
</svg>
