<svg width="24" height="20" viewBox="0 0 24 20" fill="none" xmlns="http://www.w3.org/2000/svg">
<path d="M11.4752 19.9527C12.2954 19.9527 12.9602 19.2525 12.9602 18.3887C12.9602 17.5249 12.2954 16.8247 11.4752 16.8247C10.6551 16.8247 9.99023 17.5249 9.99023 18.3887C9.99023 19.2525 10.6551 19.9527 11.4752 19.9527Z" fill="#6155CC"/>
<path d="M22.7984 5.18313C19.8406 1.84081 15.8353 4.73934e-05 11.5199 0C7.2048 4.73934e-05 3.19949 1.84081 0.241591 5.18313C-0.0972585 5.56607 -0.0772335 6.16588 0.286366 6.5228C0.650011 6.87967 1.21949 6.85863 1.55838 6.47564C4.17198 3.52227 7.7097 1.89578 11.5202 1.89573C15.3303 1.89578 18.868 3.52227 21.4816 6.47564C21.6589 6.67592 21.8992 6.77725 22.1402 6.77725C22.3599 6.77725 22.5802 6.69299 22.7537 6.5228C23.1173 6.16583 23.1373 5.56607 22.7984 5.18313Z" fill="#6155CC"/>
<path d="M19.4935 9.09768C17.3071 6.77758 14.4753 5.49991 11.5197 5.5C8.56339 5.50005 5.73154 6.77777 3.5458 9.09777C3.1957 9.46938 3.19791 10.0695 3.55075 10.4382C3.9036 10.807 4.47343 10.8046 4.82353 10.433C6.66876 8.47445 9.04683 7.39578 11.5197 7.39573C13.9919 7.39564 16.3699 8.47436 18.2158 10.4331C18.3918 10.6198 18.6232 10.7133 18.8547 10.7133C19.0838 10.7133 19.3131 10.6216 19.4887 10.4382C19.8415 10.0694 19.8436 9.46924 19.4935 9.09768Z" fill="#6155CC"/>
<path d="M15.8917 13.0231C14.7208 11.8014 13.0425 11.0425 11.5115 11.0425C11.5113 11.0425 11.511 11.0425 11.5108 11.0425H11.4459C11.4457 11.0425 11.4455 11.0425 11.4453 11.0425C9.91424 11.0425 8.23574 11.8014 7.06488 13.0231C6.71181 13.3916 6.70916 13.9917 7.05899 14.3636C7.23498 14.5507 7.46664 14.6444 7.69835 14.6444C7.92726 14.6444 8.15627 14.553 8.33172 14.3699C9.16526 13.5001 10.3873 12.9382 11.4454 12.9382C11.4455 12.9382 11.4457 12.9382 11.4458 12.9382H11.5109C11.5111 12.9382 11.5112 12.9382 11.5113 12.9382C12.5692 12.9382 13.7914 13.5002 14.6248 14.3699C14.9779 14.7383 15.5478 14.7356 15.8976 14.3636C16.2475 13.9918 16.2448 13.3916 15.8917 13.0231Z" fill="#6155CC"/>
</svg>
