<svg width="32" height="32" viewBox="0 0 32 32" fill="none" xmlns="http://www.w3.org/2000/svg">
<rect opacity="0.2" width="32" height="32" rx="12" fill="#FE9C5E"/>
<path d="M15.9626 23.9618C16.646 23.9618 17.2001 23.4017 17.2001 22.7107C17.2001 22.0196 16.646 21.4595 15.9626 21.4595C15.2791 21.4595 14.7251 22.0196 14.7251 22.7107C14.7251 23.4017 15.2791 23.9618 15.9626 23.9618Z" fill="#FE9C5E"/>
<path d="M25.3986 12.1465C22.9337 9.47264 19.596 8.00004 15.9998 8C12.4039 8.00004 9.06614 9.47264 6.60123 12.1465C6.31885 12.4529 6.33554 12.9327 6.63854 13.2182C6.94158 13.5037 7.41614 13.4869 7.69855 13.1805C9.87655 10.8178 12.8247 9.51663 16 9.51659C19.1752 9.51663 22.1233 10.8178 24.3013 13.1805C24.449 13.3407 24.6493 13.4218 24.8501 13.4218C25.0332 13.4218 25.2168 13.3544 25.3613 13.2182C25.6643 12.9327 25.681 12.4529 25.3986 12.1465Z" fill="#FE9C5E"/>
<path d="M22.6446 15.278C20.8225 13.422 18.4627 12.3998 15.9997 12.3999C13.5361 12.3999 11.1763 13.4221 9.35482 15.2781C9.06307 15.5754 9.06491 16.0555 9.35895 16.3505C9.65298 16.6455 10.1278 16.6436 10.4196 16.3463C11.9573 14.7795 13.939 13.9165 15.9997 13.9165C18.0599 13.9164 20.0416 14.7794 21.5799 16.3464C21.7265 16.4958 21.9193 16.5705 22.1122 16.5705C22.3032 16.5705 22.4943 16.4972 22.6406 16.3504C22.9345 16.0554 22.9363 15.5753 22.6446 15.278Z" fill="#FE9C5E"/>
<path d="M19.6433 18.4185C18.6675 17.4411 17.2689 16.834 15.993 16.834C15.9929 16.834 15.9926 16.834 15.9925 16.834H15.9384C15.9382 16.834 15.9381 16.834 15.9379 16.834C14.662 16.834 13.2633 17.4412 12.2876 18.4185C11.9933 18.7133 11.9911 19.1934 12.2826 19.4909C12.4293 19.6405 12.6224 19.7155 12.8154 19.7155C13.0062 19.7155 13.197 19.6424 13.3433 19.4959C14.0379 18.8001 15.0563 18.3506 15.938 18.3506C15.9381 18.3506 15.9382 18.3506 15.9383 18.3506H15.9926C15.9927 18.3506 15.9928 18.3506 15.9929 18.3506C16.8745 18.3506 17.893 18.8001 18.5875 19.4959C18.8817 19.7906 19.3567 19.7885 19.6482 19.4909C19.9397 19.1934 19.9375 18.7133 19.6433 18.4185Z" fill="#FE9C5E"/>
</svg>
