<svg width="32" height="32" viewBox="0 0 32 32" fill="none" xmlns="http://www.w3.org/2000/svg">
<rect opacity="0.2" width="32" height="32" rx="12" fill="#FF9C57"/>
<path d="M15.9563 25.5771C16.7537 25.5771 17.4001 24.9049 17.4001 24.0756C17.4001 23.2464 16.7537 22.5742 15.9563 22.5742C15.159 22.5742 14.5126 23.2464 14.5126 24.0756C14.5126 24.9049 15.159 25.5771 15.9563 25.5771Z" fill="#FE9C5E"/>
<path d="M26.9652 11.3987C24.0895 8.19003 20.1954 6.4229 15.9999 6.42285C11.8047 6.4229 7.91066 8.19003 5.03493 11.3987C4.70549 11.7663 4.72496 12.3421 5.07846 12.6847C5.432 13.0273 5.98566 13.0071 6.31514 12.6395C8.85614 9.80424 12.2956 8.2428 16.0002 8.24276C19.7045 8.2428 23.144 9.80424 25.685 12.6395C25.8573 12.8317 26.091 12.929 26.3253 12.929C26.5389 12.929 26.753 12.8481 26.9217 12.6847C27.2752 12.342 27.2947 11.7663 26.9652 11.3987Z" fill="#FE9C5E"/>
<path d="M23.7522 15.1564C21.6265 12.9291 18.8734 11.7025 15.9999 11.7026C13.1257 11.7027 10.3726 12.9293 8.24753 15.1565C7.90716 15.5132 7.9093 16.0894 8.25235 16.4434C8.59539 16.7973 9.1494 16.7951 9.48977 16.4383C11.2837 14.5581 13.5958 13.5226 15.9999 13.5225C18.4034 13.5225 20.7155 14.558 22.5101 16.4384C22.6811 16.6177 22.9061 16.7074 23.1312 16.7074C23.3539 16.7074 23.5769 16.6194 23.7476 16.4433C24.0905 16.0892 24.0926 15.5131 23.7522 15.1564Z" fill="#FE9C5E"/>
<path d="M20.2505 18.9249C19.1121 17.752 17.4803 17.0234 15.9919 17.0234C15.9917 17.0234 15.9914 17.0234 15.9912 17.0234H15.9282C15.9279 17.0234 15.9278 17.0234 15.9275 17.0234C14.439 17.0234 12.8071 17.752 11.6688 18.9249C11.3255 19.2786 11.323 19.8547 11.6631 20.2117C11.8342 20.3913 12.0594 20.4813 12.2847 20.4813C12.5072 20.4813 12.7299 20.3935 12.9005 20.2177C13.7108 19.3828 14.899 18.8433 15.9276 18.8433C15.9277 18.8433 15.9279 18.8433 15.928 18.8433H15.9914C15.9915 18.8433 15.9916 18.8433 15.9917 18.8433C17.0203 18.8433 18.2085 19.3828 19.0188 20.2177C19.362 20.5714 19.9161 20.5688 20.2562 20.2117C20.5963 19.8548 20.5938 19.2786 20.2505 18.9249Z" fill="#FE9C5E"/>
</svg>
